<?xml version="1.0" encoding="UTF-8"?>
<svg version="1.1" xmlns="http://www.w3.org/2000/svg" width="512" height="512">
<path d="M0 0 C168.96 0 337.92 0 512 0 C512 168.96 512 337.92 512 512 C343.04 512 174.08 512 0 512 C0 343.04 0 174.08 0 0 Z " fill="#010101" transform="translate(0,0)"/>
<path d="M0 0 C3.89199822 -0.02514961 7.7839635 -0.04306705 11.67602539 -0.05493164 C13.63364327 -0.06229736 15.59123871 -0.07501826 17.54882812 -0.08789062 C25.74950314 -0.10875748 33.83492363 0.23303794 42 1 C42 1.66 42 2.32 42 3 C42.67297119 2.97679688 43.34594238 2.95359375 44.03930664 2.9296875 C50.78519144 2.79832366 56.87994901 3.45167265 63.4375 5 C64.84878174 5.32677734 64.84878174 5.32677734 66.28857422 5.66015625 C75.5288787 7.92346657 84.17716579 11.32018126 92.88916016 15.09814453 C95.66857705 16.28564927 98.49288771 17.34955881 101.3125 18.4375 C106.06215061 20.43059663 110.4554737 22.8719843 114.875 25.5 C115.49415283 25.86794678 116.11330566 26.23589355 116.7512207 26.61499023 C119.79687282 28.47899365 122.59706659 30.43173924 125.31640625 32.75 C127.70380428 35.08973866 127.70380428 35.08973866 130.0625 35.5 C133.19659355 36.30879833 134.80134338 38.69664544 137 41 C138.485 42.2375 138.485 42.2375 140 43.5 C142.8631137 45.88592808 145.42546461 48.30571878 148 51 C148.65871094 51.67546875 149.31742187 52.3509375 149.99609375 53.046875 C154.52942792 57.85519478 158.42327089 62.83569621 162 68.375 C162.38575195 68.96982178 162.77150391 69.56464355 163.16894531 70.17749023 C164.97530684 73.0530644 166.46686038 75.61789553 167 79 C167.66 79 168.32 79 169 79 C170.18948958 81.61687707 171.37869134 84.23387921 172.56640625 86.8515625 C173.48534394 88.86971993 174.4093688 90.88557331 175.33984375 92.8984375 C175.76394531 93.81882812 176.18804687 94.73921875 176.625 95.6875 C177.20121094 96.93080078 177.20121094 96.93080078 177.7890625 98.19921875 C180.71015398 104.95542065 182.5434481 111.12164937 183.5 118.4375 C184.14102251 123.31639358 184.86915855 127.88876346 186.53125 132.53515625 C189.53337699 141.1108013 189.19254737 150.06998434 189.1875 159.0625 C189.18814453 160.24884033 189.18878906 161.43518066 189.18945312 162.6574707 C189.13595986 171.5829435 188.50903576 180.20178259 187 189 C186.34 189 185.68 189 185 189 C184.896875 190.0725 184.79375 191.145 184.6875 192.25 C183.9900266 197.95287077 182.46923218 203.45572761 181 209 C180.34 209 179.68 209 179 209 C178.938125 209.804375 178.87625 210.60875 178.8125 211.4375 C175.92396078 224.10263351 165.11619284 235.97267245 156.5 245.375 C155.9836499 245.94057617 155.4672998 246.50615234 154.93530273 247.08886719 C153.6683534 248.43617405 152.33914262 249.72442428 151 251 C150.34 251 149.68 251 149 251 C149 251.66 149 252.32 149 253 C147.6105957 254.20507812 147.6105957 254.20507812 145.67578125 255.53125 C144.97646484 256.01207031 144.27714844 256.49289062 143.55664062 256.98828125 C142.81607422 257.48714844 142.07550781 257.98601562 141.3125 258.5 C140.59126953 258.99886719 139.87003906 259.49773437 139.12695312 260.01171875 C135.53001246 262.46223723 132.16664084 264.61933795 128 266 C128.144375 265.030625 128.28875 264.06125 128.4375 263.0625 C128.85979633 260.17094316 129.16461444 257.284155 129.4375 254.375 C129.79974773 250.95701743 130.48874471 248.12326094 132 245 C132.66 245 133.32 245 134 245 C135.16925149 227.24528175 135.16925149 227.24528175 129 211 C127.66906259 209.66427504 126.33618537 208.33047518 125 207 C125 206.34 125 205.68 125 205 C124.46375 204.9175 123.9275 204.835 123.375 204.75 C120.17073312 203.73812625 117.77945176 201.87187568 115 200 C110.48498519 197.67681965 106.28314893 197.61469066 101.3125 197.625 C100.11137573 197.62741699 100.11137573 197.62741699 98.88598633 197.62988281 C90.06280798 197.81226486 83.6870939 200.14879283 77 206 C76.34 206 75.68 206 75 206 C74.731875 206.639375 74.46375 207.27875 74.1875 207.9375 C73 210 73 210 70 211 C69.31653318 212.65984798 68.65411685 214.32836805 68 216 C67.21335165 217.14322597 66.39832528 218.26721963 65.5625 219.375 C61.70039529 224.6301806 59.73250583 230.54197139 57.75390625 236.6953125 C57.26867812 238.17865238 56.75750818 239.65388341 56.21484375 241.1171875 C53.84493631 247.61954659 52.94694058 254.16624549 52 261 C51.64667595 263.12514026 51.29251325 265.25014127 50.9375 267.375 C49.9630032 273.60264358 49.560524 279.78952007 49.24609375 286.078125 C49 289 49 289 48 290 C40.65308011 291.08514729 33.22355457 291.1484611 25.8125 291.1328125 C24.78874268 291.13376923 23.76498535 291.13472595 22.71020508 291.13571167 C20.56233661 291.13638713 18.41446602 291.13457752 16.26660156 291.13037109 C13.0084162 291.12501384 9.75036866 291.13033786 6.4921875 291.13671875 C4.3906247 291.13605786 2.28906199 291.13477646 0.1875 291.1328125 C-0.77115967 291.13483673 -1.72981934 291.13686096 -2.7175293 291.13894653 C-9.19249216 291.11687344 -15.56196571 290.68469998 -22 290 C-22.0501123 289.36703506 -22.10022461 288.73407013 -22.15185547 288.08192444 C-23.27249784 273.74232528 -23.27249784 273.74232528 -26.27734375 259.70703125 C-27.08134319 256.69529282 -27.58494793 253.70464679 -28.0625 250.625 C-28.69409168 246.55946029 -29.63861515 242.88967099 -31 239 C-31 237.68 -31 236.36 -31 235 C-31.66 235 -32.32 235 -33 235 C-33.20753906 234.24976563 -33.41507813 233.49953125 -33.62890625 232.7265625 C-35.68786176 225.88635047 -38.2471527 220.62449502 -42.609375 214.9609375 C-44 213 -44 213 -44 211 C-44.556875 210.7525 -45.11375 210.505 -45.6875 210.25 C-48.40781314 208.77956046 -50.59707174 206.94522764 -53 205 C-54.093125 204.29875 -55.18625 203.5975 -56.3125 202.875 C-57.6428125 201.946875 -57.6428125 201.946875 -59 201 C-59 200.34 -59 199.68 -59 199 C-71.7381169 196.19159627 -82.25908691 195.47727051 -94 202 C-95.01375949 202.98604853 -96.01806793 203.98225278 -97 205 C-97.66 205 -98.32 205 -99 205 C-99.2475 205.53625 -99.495 206.0725 -99.75 206.625 C-101 209 -101 209 -102.9375 211.75 C-107.78720401 219.39195784 -108.41415041 225.64319946 -108.1875 234.5 C-108.17396484 235.51320313 -108.16042969 236.52640625 -108.14648438 237.5703125 C-108.11143063 240.04744404 -108.06229764 242.52342927 -108 245 C-107.34 245 -106.68 245 -106 245 C-105.32595716 247.56076097 -104.660586 250.12326583 -104 252.6875 C-103.80921875 253.40873047 -103.6184375 254.12996094 -103.421875 254.87304688 C-102.45134572 258.66850961 -101.75044761 262.04615439 -102 266 C-106.57244431 264.69840449 -109.841016 262.92447099 -113.625 260.0625 C-115.00558594 259.02802734 -115.00558594 259.02802734 -116.4140625 257.97265625 C-117.26742187 257.32167969 -118.12078125 256.67070312 -119 256 C-120.15628906 255.19369141 -120.15628906 255.19369141 -121.3359375 254.37109375 C-122.15964844 253.69240234 -122.15964844 253.69240234 -123 253 C-123 252.34 -123 251.68 -123 251 C-123.66 251 -124.32 251 -125 251 C-126.36176922 249.35648543 -127.68962066 247.68477344 -129 246 C-131.22452437 243.71986252 -133.45974975 241.48599435 -135.828125 239.35546875 C-138.78931914 236.14395784 -140.9661229 232.58630029 -143.25 228.875 C-143.70890625 228.14667969 -144.1678125 227.41835938 -144.640625 226.66796875 C-148 221.25897507 -148 221.25897507 -148 219 C-148.66 219 -149.32 219 -150 219 C-150.26554687 218.32453125 -150.53109375 217.6490625 -150.8046875 216.953125 C-151.15789062 216.06109375 -151.51109375 215.1690625 -151.875 214.25 C-152.39707031 212.92742187 -152.39707031 212.92742187 -152.9296875 211.578125 C-153.91222527 209.08610265 -153.91222527 209.08610265 -155 207.15625 C-156.47552674 203.97464548 -157.27474084 200.6384402 -158.125 197.25 C-158.39763672 196.23292969 -158.39763672 196.23292969 -158.67578125 195.1953125 C-159.90173165 190.34681693 -160.16813345 185.99916803 -160 181 C-160.66 181 -161.32 181 -162 181 C-162 167.8 -162 154.6 -162 141 C-161.34 141 -160.68 141 -160 141 C-160.02835937 139.845 -160.05671875 138.69 -160.0859375 137.5 C-160.08404545 133.2012666 -159.48090897 129.20215153 -158.625 125 C-158.48634521 124.29576904 -158.34769043 123.59153809 -158.20483398 122.8659668 C-157.2728821 118.19319584 -156.27891936 113.58906358 -155 109 C-154.73574219 108.01773438 -154.47148437 107.03546875 -154.19921875 106.0234375 C-152.30650989 99.37169524 -149.92478058 93.63445632 -146.4609375 87.65625 C-144.22934792 83.5988144 -142.59975172 79.33815026 -141 75 C-140.34 75 -139.68 75 -139 75 C-138.7628125 74.30132812 -138.525625 73.60265625 -138.28125 72.8828125 C-136.77955148 69.50399083 -134.77168386 66.75920935 -132.5 63.875 C-132.05712646 63.3087793 -131.61425293 62.74255859 -131.15795898 62.15917969 C-123.63537583 52.65052816 -115.65677091 44.36328782 -106 37 C-105.01 36.24074219 -104.02 35.48148438 -103 34.69921875 C-94.9284003 28.65625249 -94.9284003 28.65625249 -91 28 C-91 27.34 -91 26.68 -91 26 C-88.46317484 24.677356 -85.92122349 23.36682639 -83.375 22.0625 C-82.66214844 21.68931641 -81.94929688 21.31613281 -81.21484375 20.93164062 C-77.13081898 18.85216012 -73.6297779 17.46005679 -69 17 C-69 16.34 -69 15.68 -69 15 C-54.17794064 9.8835579 -54.17794064 9.8835579 -47.203125 8.52734375 C-44.56167393 7.89508153 -42.10713883 6.94902514 -39.5625 6 C-26.9413791 1.69661527 -13.20396201 1.64945234 0 2 C0 1.34 0 0.68 0 0 Z " fill="#FCFCFC" transform="translate(243,67)"/>
<path d="M0 0 C23.1 0 46.2 0 70 0 C70.495 10.395 70.495 10.395 71 21 C72.28696035 31.59267368 74.21432386 40.78504635 81.828125 48.625 C83 50 83 50 83 52 C83.515625 52.2475 84.03125 52.495 84.5625 52.75 C87 54 87 54 90.125 56 C94.14181853 58.30370962 97.87712158 58.84945441 102.4375 59.25 C103.16904297 59.32734375 103.90058594 59.4046875 104.65429688 59.484375 C106.43475885 59.6705671 108.21723355 59.83734664 110 60 C110.08687496 63.12482562 110.14034568 66.24934246 110.1875 69.375 C110.21263672 70.26445312 110.23777344 71.15390625 110.26367188 72.0703125 C110.27817383 73.34648437 110.27817383 73.34648437 110.29296875 74.6484375 C110.31653442 75.82672119 110.31653442 75.82672119 110.34057617 77.02880859 C110.17199097 78.00454834 110.17199097 78.00454834 110 79 C104.72346191 82.51769206 99.13607598 82.10579441 93 82 C93 82.66 93 83.32 93 84 C81.64650681 85.21086752 70.43227487 86.38178283 59 86 C59 86.66 59 87.32 59 88 C51.46426144 88.07743881 43.92862895 88.12916684 36.39257812 88.16479492 C33.84045581 88.17968123 31.28835812 88.19999683 28.73632812 88.22631836 C5.14516917 88.46315873 -17.00766249 86.20920147 -40 81 C-40 74.07 -40 67.14 -40 60 C-37.73125 59.79375 -35.4625 59.5875 -33.125 59.375 C-26.74732166 58.65904612 -22.18454842 56.97343591 -16.85546875 53.2421875 C-15 52 -15 52 -13 52 C-12.7525 51.29875 -12.505 50.5975 -12.25 49.875 C-10.82819762 46.60485452 -9.12753712 43.858878 -7 41 C-6.34 41 -5.68 41 -5 41 C-4.814375 39.6696875 -4.814375 39.6696875 -4.625 38.3125 C-4 35 -4 35 -3 32.625 C0.53361812 23.34925243 -0.37941586 8.34714887 0 0 Z " fill="#FBFBFB" transform="translate(221,367)"/>
<path d="M0 0 C6.83186475 4.04536919 11.06706099 9.82618298 13.5625 17.3125 C14.26182574 28.14391724 12.14978643 37.19635226 8.5625 47.3125 C7.9025 47.3125 7.2425 47.3125 6.5625 47.3125 C6.50191406 47.90417969 6.44132812 48.49585938 6.37890625 49.10546875 C6.29511719 49.89566406 6.21132813 50.68585938 6.125 51.5 C6.04378906 52.27730469 5.96257812 53.05460937 5.87890625 53.85546875 C5.5625 56.3125 5.5625 56.3125 5.05859375 58.71875 C4.48830752 61.70040399 4.25473527 64.59386167 4.0625 67.625 C4.02044434 68.28234131 3.97838867 68.93968262 3.93505859 69.61694336 C3.63797102 74.72696085 3.49302873 79.83615624 3.3828125 84.953125 C3.3497487 86.34855474 3.31654367 87.74398114 3.28320312 89.1394043 C3.21756063 91.90126491 3.16945673 94.66269505 3.13085938 97.42504883 C2.61704968 119.73067548 2.61704968 119.73067548 -2.4375 127.3125 C-3.0975 127.3125 -3.7575 127.3125 -4.4375 127.3125 C-4.70175781 127.910625 -4.96601563 128.50875 -5.23828125 129.125 C-7.2100035 132.72162691 -10.23246211 134.83587982 -13.4375 137.3125 C-14.8915625 138.488125 -14.8915625 138.488125 -16.375 139.6875 C-20.18420132 141.75733999 -24.25818305 141.74045011 -28.5 141.8125 C-29.18505615 141.83103027 -29.8701123 141.84956055 -30.57592773 141.86865234 C-35.67789957 141.80580956 -38.5463993 140.5440921 -42.4375 137.3125 C-54.12856894 124.45437163 -53.99871382 107.43261603 -53.875 91 C-53.87328796 90.19122406 -53.87157593 89.38244812 -53.86981201 88.54916382 C-53.82547747 76.34253852 -52.79926629 65.09171211 -49.4375 53.3125 C-49.08375617 51.58739311 -48.74706769 49.85857905 -48.4375 48.125 C-48.11026256 46.51957873 -47.77613927 44.91555497 -47.4375 43.3125 C-47.18613281 42.09304688 -46.93476563 40.87359375 -46.67578125 39.6171875 C-43.84410155 26.67858949 -38.81679648 14.12955185 -28.4375 5.3125 C-26.19921875 4.578125 -26.19921875 4.578125 -24.4375 4.3125 C-24.4375 3.6525 -24.4375 2.9925 -24.4375 2.3125 C-16.8024409 -2.3859979 -8.42182612 -3.90046767 0 0 Z " fill="#FBFBFB" transform="translate(354.4375,274.6875)"/>
<path d="M0 0 C7.57284809 -0.51605779 12.56556164 2.14751534 18.77734375 6.26953125 C19.751875 6.88441406 19.751875 6.88441406 20.74609375 7.51171875 C33.50962958 16.85230633 37.83345754 35.67076412 40.26171875 50.3515625 C40.70571176 53.72523669 40.88391671 56.87518261 40.77734375 60.26953125 C41.43734375 60.26953125 42.09734375 60.26953125 42.77734375 60.26953125 C44.55046649 71.66817743 44.99791491 83.00215339 45.02734375 94.51953125 C45.03233887 95.19322754 45.03733398 95.86692383 45.04248047 96.56103516 C45.0998896 106.0105789 44.36768421 114.96296031 42.77734375 124.26953125 C42.11734375 124.26953125 41.45734375 124.26953125 40.77734375 124.26953125 C40.59171875 125.25953125 40.40609375 126.24953125 40.21484375 127.26953125 C38.4975016 133.26195919 34.21602782 137.77562408 28.984375 140.98046875 C25.3445092 142.4435086 22.62694621 142.67007272 18.71484375 142.64453125 C17.52761719 142.65226563 16.34039062 142.66 15.1171875 142.66796875 C11.49286892 142.2355939 9.76771738 141.28275488 6.77734375 139.26953125 C5.9471875 138.98335937 5.11703125 138.6971875 4.26171875 138.40234375 C-0.89995014 136.04875259 -4.19488947 130.92043074 -7.22265625 126.26953125 C-8.15918114 123.34117782 -8.28123878 121.37440552 -8.22265625 118.26953125 C-8.88265625 118.26953125 -9.54265625 118.26953125 -10.22265625 118.26953125 C-11.22352691 106.67745368 -12.18186244 95.08528453 -12.97680664 83.47705078 C-13.87042303 61.46582937 -13.87042303 61.46582937 -18.63671875 40.1171875 C-19.22265625 38.26953125 -19.22265625 38.26953125 -19.22265625 35.26953125 C-19.88265625 35.26953125 -20.54265625 35.26953125 -21.22265625 35.26953125 C-23.35360573 27.2784707 -23.02426433 18.67336238 -19.22265625 11.26953125 C-15.4859089 6.02544862 -12.00133317 2.16921623 -5.59765625 0.64453125 C-3.73093033 0.43711726 -1.8645542 0.22610587 0 0 Z " fill="#FBFBFB" transform="translate(166.22265625,273.73046875)"/>
<path d="M0 0 C2 0 2 0 4.25 2.1875 C5.61125 3.5796875 5.61125 3.5796875 7 5 C7.99 5.825 8.98 6.65 10 7.5 C12.8631137 9.88592808 15.42546461 12.30571878 18 15 C18.65871094 15.67546875 19.31742187 16.3509375 19.99609375 17.046875 C24.52942792 21.85519478 28.42327089 26.83569621 32 32.375 C32.57862793 33.26723267 32.57862793 33.26723267 33.16894531 34.17749023 C34.97530684 37.0530644 36.46686038 39.61789553 37 43 C37.66 43 38.32 43 39 43 C40.18948958 45.61687707 41.37869134 48.23387921 42.56640625 50.8515625 C43.48534394 52.86971993 44.4093688 54.88557331 45.33984375 56.8984375 C45.76394531 57.81882813 46.18804687 58.73921875 46.625 59.6875 C47.00914062 60.51636719 47.39328125 61.34523437 47.7890625 62.19921875 C50.71015398 68.95542065 52.5434481 75.12164937 53.5 82.4375 C54.14102251 87.31639358 54.86915855 91.88876346 56.53125 96.53515625 C59.53337699 105.1108013 59.19254737 114.06998434 59.1875 123.0625 C59.18814453 124.24884033 59.18878906 125.43518066 59.18945312 126.6574707 C59.13595986 135.5829435 58.50903576 144.20178259 57 153 C56.34 153 55.68 153 55 153 C54.8453125 154.60875 54.8453125 154.60875 54.6875 156.25 C53.9900266 161.95287077 52.46923218 167.45572761 51 173 C50.34 173 49.68 173 49 173 C48.9071875 174.2065625 48.9071875 174.2065625 48.8125 175.4375 C45.92396078 188.10263351 35.11619284 199.97267245 26.5 209.375 C25.72547485 210.22336426 25.72547485 210.22336426 24.93530273 211.08886719 C23.6683534 212.43617405 22.33914262 213.72442428 21 215 C20.34 215 19.68 215 19 215 C19 215.66 19 216.32 19 217 C17.6105957 218.20507812 17.6105957 218.20507812 15.67578125 219.53125 C14.97646484 220.01207031 14.27714844 220.49289062 13.55664062 220.98828125 C12.44579102 221.73658203 12.44579102 221.73658203 11.3125 222.5 C10.2306543 223.24830078 10.2306543 223.24830078 9.12695312 224.01171875 C5.53001246 226.46223723 2.16664084 228.61933795 -2 230 C-1.855625 229.030625 -1.71125 228.06125 -1.5625 227.0625 C-1.14020367 224.17094316 -0.83538556 221.284155 -0.5625 218.375 C-0.20025227 214.95701743 0.48874471 212.12326094 2 209 C2.66 209.99 3.32 210.98 4 212 C15.43103119 205.57004496 24.00252474 196.73419073 30 185 C30.66 185 31.32 185 32 185 C32.2475 184.360625 32.495 183.72125 32.75 183.0625 C34.40811572 179.00011649 36.2035584 175.00275094 38 171 C38.66 171 39.32 171 40 171 C40.12310547 169.98510498 40.24621094 168.97020996 40.37304688 167.92456055 C40.9703365 164.18568567 41.91195698 160.81807163 43.03125 157.20703125 C45.5356108 148.3863211 45.61992928 139.79983255 45.5 130.6875 C45.49446106 129.86117065 45.48892212 129.03484131 45.48321533 128.18347168 C45.32755201 108.28251449 43.27871373 89.24086674 36.171875 70.51171875 C35.12475631 67.37385308 34.72274025 65.25780212 35 62 C34.01 61.67 33.02 61.34 32 61 C32 59.68 32 58.36 32 57 C31.34 57 30.68 57 30 57 C29.79246094 56.34515625 29.58492188 55.6903125 29.37109375 55.015625 C27.10624875 48.30637704 24.14819705 42.53073479 20.390625 36.53125 C19 34 19 34 19 31 C18.34 31 17.68 31 17 31 C16.80664062 30.43410156 16.61328125 29.86820313 16.4140625 29.28515625 C16.15367187 28.55167969 15.89328125 27.81820312 15.625 27.0625 C15.36976563 26.33160156 15.11453125 25.60070312 14.8515625 24.84765625 C14.14728587 22.81317884 14.14728587 22.81317884 12 22 C11.375 19.4375 11.375 19.4375 11 17 C10.01 17 9.02 17 8 17 C7.16151196 15.54462432 6.32936066 14.08559627 5.5 12.625 C5.0359375 11.81289062 4.571875 11.00078125 4.09375 10.1640625 C3 8 3 8 3 6 C2.01 5.67 1.02 5.34 0 5 C0 3.35 0 1.7 0 0 Z " fill="#D1DCDF" transform="translate(373,103)"/>
<path d="M0 0 C1.25425781 0.00902344 2.50851563 0.01804688 3.80078125 0.02734375 C4.75339844 0.03894531 5.70601562 0.05054688 6.6875 0.0625 C6.6875 0.7225 6.6875 1.3825 6.6875 2.0625 C7.5125 2.248125 8.3375 2.43375 9.1875 2.625 C15.69447395 5.29750716 20.5335567 9.89661386 23.91113281 16.08911133 C25.3013519 19.62280344 25.14707713 23.06693566 25 26.8125 C24.98549805 27.94365234 24.98549805 27.94365234 24.97070312 29.09765625 C24.90491779 32.31827747 24.71127447 34.9911766 23.6875 38.0625 C23.0275 38.0625 22.3675 38.0625 21.6875 38.0625 C21.460625 38.784375 21.23375 39.50625 21 40.25 C18.45051037 45.71319205 13.36239823 49.403884 8.6875 53.0625 C2.42165778 55.15111407 -5.78363445 55.2139723 -12.08984375 53.15625 C-18.67129145 49.64614456 -24.4043251 44.49914958 -27.6328125 37.6953125 C-29.18788884 31.67162598 -28.58194994 25.2299097 -28.3125 19.0625 C-27.6525 19.0625 -26.9925 19.0625 -26.3125 19.0625 C-26.415625 18.19625 -26.51875 17.33 -26.625 16.4375 C-26.1937617 11.78012638 -24.58520488 10.33520488 -21.3125 7.0625 C-20.6525 7.0625 -19.9925 7.0625 -19.3125 7.0625 C-19.3125 6.4025 -19.3125 5.7425 -19.3125 5.0625 C-12.58314284 0.97210643 -7.98256783 -0.07460344 0 0 Z " fill="#111111" transform="translate(191.3125,172.9375)"/>
<path d="M0 0 C4.34669453 2.01887796 8.52612119 4.60466208 11.5625 8.375 C11.5625 9.365 11.5625 10.355 11.5625 11.375 C12.5525 11.705 13.5425 12.035 14.5625 12.375 C15.76164788 15.24782486 16.11984343 18.30496249 16.5625 21.375 C16.67207031 22.09300781 16.78164063 22.81101563 16.89453125 23.55078125 C17.45676185 30.70287751 14.41088018 36.50458956 10.5625 42.375 C5.6284629 48.01389954 0.77917105 50.99833681 -6.8046875 51.67578125 C-14.79277054 51.7024675 -20.29862063 50.94443968 -27.4375 47.375 C-27.4375 46.385 -27.4375 45.395 -27.4375 44.375 C-28.035625 44.148125 -28.63375 43.92125 -29.25 43.6875 C-32.03098403 42.01890958 -33.0016916 40.2466168 -34.4375 37.375 C-34.4375 36.715 -34.4375 36.055 -34.4375 35.375 C-35.0975 35.375 -35.7575 35.375 -36.4375 35.375 C-39.11263771 30.02472458 -38.20803886 20.58476058 -36.82421875 14.8203125 C-30.10713713 0.08415987 -14.97808679 -5.48202564 0 0 Z " fill="#0E0E0E" transform="translate(333.4375,174.625)"/>
<path d="M0 0 C1.3955608 0.93721485 2.74890226 1.93667669 4.09375 2.9453125 C4.795 3.0484375 5.49625 3.1515625 6.21875 3.2578125 C8.95640686 4.26162001 10.00931539 6.19455399 11.34375 8.69140625 C12.77843513 13.00293396 12.38557454 17.46256328 12.09375 21.9453125 C11.10375 22.2753125 10.11375 22.6053125 9.09375 22.9453125 C7.88492904 24.94547716 7.88492904 24.94547716 7.09375 26.9453125 C5.77375 26.9453125 4.45375 26.9453125 3.09375 26.9453125 C2.43375 23.6453125 1.77375 20.3453125 1.09375 16.9453125 C0.43375 16.9453125 -0.22625 16.9453125 -0.90625 16.9453125 C-1.4940625 15.429375 -1.4940625 15.429375 -2.09375 13.8828125 C-3.96717653 9.50256285 -6.53200576 4.13243462 -10.90625 1.9453125 C-10.41125 5.9053125 -10.41125 5.9053125 -9.90625 9.9453125 C-9.24625 9.9453125 -8.58625 9.9453125 -7.90625 9.9453125 C-4.90625 16.4453125 -4.90625 16.4453125 -4.90625 20.9453125 C-4.2875 21.2134375 -3.66875 21.4815625 -3.03125 21.7578125 C-0.90625 22.9453125 -0.90625 22.9453125 1.09375 25.9453125 C1.09375 27.2653125 1.09375 28.5853125 1.09375 29.9453125 C-4.04921883 32.88776516 -9.03791028 34.02133787 -14.78125 35.1328125 C-16.09996094 35.39868164 -16.09996094 35.39868164 -17.4453125 35.66992188 C-19.59755536 36.10270984 -21.7510381 36.52760856 -23.90625 36.9453125 C-24.20015625 36.295625 -24.4940625 35.6459375 -24.796875 34.9765625 C-25.16296875 34.30625 -25.5290625 33.6359375 -25.90625 32.9453125 C-27.22773827 32.56774442 -28.56460921 32.2434549 -29.90625 31.9453125 C-31.9127938 30.62184744 -33.91253175 29.28802071 -35.90625 27.9453125 C-37.55244113 27.22957723 -39.21353055 26.5427429 -40.90625 25.9453125 C-39.58625 25.6153125 -38.26625 25.2853125 -36.90625 24.9453125 C-39.75100516 15.65579136 -39.75100516 15.65579136 -45.90625 8.9453125 C-47.60134618 6.44727602 -47.94689275 5.29484017 -47.59375 2.2578125 C-46.90625 -0.0546875 -46.90625 -0.0546875 -45.90625 -1.0546875 C-43.90666636 -1.09549533 -41.90579746 -1.09723106 -39.90625 -1.0546875 C-39.90625 -1.7146875 -39.90625 -2.3746875 -39.90625 -3.0546875 C-28.41216913 -6.34719402 -10.51056656 -5.81527248 0 0 Z " fill="#F69E9E" transform="translate(393.90625,239.0546875)"/>
<path d="M0 0 C-0.62759865 2.92879371 -1.58622659 5.36095629 -3 8 C-3.66 8 -4.32 8 -5 8 C-6.45232253 11.57847037 -7.81226545 15.18060107 -9.125 18.8125 C-9.47820312 19.78832031 -9.83140625 20.76414062 -10.1953125 21.76953125 C-10.46085937 22.50558594 -10.72640625 23.24164063 -11 24 C-10.34 24.33 -9.68 24.66 -9 25 C-9.61488281 25.25394531 -10.22976562 25.50789063 -10.86328125 25.76953125 C-11.67152344 26.11371094 -12.47976562 26.45789063 -13.3125 26.8125 C-14.11300781 27.14894531 -14.91351563 27.48539062 -15.73828125 27.83203125 C-17.97429421 28.98672534 -19.26214385 30.22137304 -21 32 C-21.66 32 -22.32 32 -23 32 C-23.33 32.99 -23.66 33.98 -24 35 C-24.33 34.34 -24.66 33.68 -25 33 C-25.88300781 33.04640625 -26.76601562 33.0928125 -27.67578125 33.140625 C-36.0072135 33.39119439 -42.40989466 32.46976244 -50 29 C-48.89217182 24.35489587 -48.10372435 21.73581623 -44 19 C-42.76609844 16.36367029 -42.76609844 16.36367029 -41.8125 13.375 C-41.46832031 12.37210938 -41.12414062 11.36921875 -40.76953125 10.3359375 C-40.38861328 9.17964844 -40.38861328 9.17964844 -40 8 C-39.34 8 -38.68 8 -38 8 C-38 6.02 -38 4.04 -38 2 C-41.37088267 4.27415287 -41.37088267 4.27415287 -43 8 C-43.66 8 -44.32 8 -45 8 C-45.27585937 8.85851562 -45.55171875 9.71703125 -45.8359375 10.6015625 C-46.97457764 13.92578037 -48.25849731 17.13854627 -49.625 20.375 C-50.07101563 21.43460937 -50.51703125 22.49421875 -50.9765625 23.5859375 C-51.31429687 24.38257813 -51.65203125 25.17921875 -52 26 C-54.9719385 24.87548273 -57.33440687 23.77706209 -60 22 C-61.57999416 18.26546834 -61.12806809 13.97011069 -61 10 C-60.67 9.34 -60.34 8.68 -60 8 C-59.34 8 -58.68 8 -58 8 C-57.67 7.01 -57.34 6.02 -57 5 C-56.34 5 -55.68 5 -55 5 C-55 4.01 -55 3.02 -55 2 C-42.85061955 -7.77832133 -12.82816513 -9.4073211 0 0 Z " fill="#F69E9E" transform="translate(167,240)"/>
<path d="M0 0 C5.45454545 0.45454545 5.45454545 0.45454545 8 3 C7.75775076 7.84498473 5.8908508 12.03024989 4.0546875 16.453125 C2.61212062 19.93665688 1.30941811 23.4645711 0 27 C-0.66 27 -1.32 27 -2 27 C-2.10957031 27.56847656 -2.21914063 28.13695312 -2.33203125 28.72265625 C-3.37938166 33.82316758 -4.79271753 38.284442 -7 43 C-13.625 43.25 -13.625 43.25 -17 41 C-18.28125 38.94140625 -18.28125 38.94140625 -19.5 36.5625 C-21.0519696 33.54312324 -22.49059924 31.29090413 -25 29 C-26.33333333 27.66666667 -27.66666667 26.33333333 -29 25 C-29 25.66 -29 26.32 -29 27 C-29.66 27 -30.32 27 -31 27 C-31.2784375 27.57234375 -31.556875 28.1446875 -31.84375 28.734375 C-32.98273792 30.96617566 -34.19936383 33.10870874 -35.5 35.25 C-35.9228125 35.95640625 -36.345625 36.6628125 -36.78125 37.390625 C-37.1834375 37.92171875 -37.585625 38.4528125 -38 39 C-38.66 39 -39.32 39 -40 39 C-40.66 40.32 -41.32 41.64 -42 43 C-44.3125 43.25 -44.3125 43.25 -47 43 C-49.51325252 40.23159494 -50.77902133 37.35650085 -52.0625 33.875 C-53.4537444 30.08110235 -53.4537444 30.08110235 -56 27 C-57.07948983 24.34279427 -58.093621 21.69683107 -59.0625 19 C-60.84259483 13.92066965 -60.84259483 13.92066965 -63 9 C-63.125 5.4375 -63.125 5.4375 -63 2 C-62 1 -62 1 -58.75 0.4375 C-55 1 -55 1 -53.56640625 2.43359375 C-49.14081299 9.28568051 -46.44295046 17.2639902 -44 25 C-43.34 25 -42.68 25 -42 25 C-40.23105139 22.71890987 -38.56974556 20.43814453 -36.9375 18.0625 C-32.05 11.05 -32.05 11.05 -31 10 C-28.25 9.625 -28.25 9.625 -25 10 C-21.42757115 12.90779092 -19.27362718 16.04586578 -17 20 C-15.68962066 21.68477344 -14.36176922 23.35648543 -13 25 C-12.35165346 23.730447 -11.70642185 22.45930294 -11.0625 21.1875 C-10.70285156 20.47980469 -10.34320313 19.77210938 -9.97265625 19.04296875 C-8.89269484 16.88189715 -8.89269484 16.88189715 -8 14 C-7.34 14 -6.68 14 -6 14 C-5.8453125 12.9790625 -5.8453125 12.9790625 -5.6875 11.9375 C-4.64097214 7.46597188 -3.2833017 3.2833017 0 0 Z " fill="#111111" transform="translate(284,247)"/>
<path d="M0 0 C0.66 0 1.32 0 2 0 C2 0.66 2 1.32 2 2 C2.66 2 3.32 2 4 2 C4.0825 2.61875 4.165 3.2375 4.25 3.875 C4.77876656 6.12099931 4.77876656 6.12099931 6.6875 6.9375 C7.450625 7.288125 8.21375 7.63875 9 8 C12.3125 10.1875 12.3125 10.1875 15 13 C14.94087589 16.48832221 14.55735315 18.8852937 13 22 C12.34 22 11.68 22 11 22 C10.60167969 23.28777344 10.60167969 23.28777344 10.1953125 24.6015625 C8.98976199 28.02910808 7.52755614 31.14173798 5.875 34.375 C5.33617187 35.43460938 4.79734375 36.49421875 4.2421875 37.5859375 C3.83226563 38.38257813 3.42234375 39.17921875 3 40 C2.34 40 1.68 40 1 40 C0.34 41.98 -0.32 43.96 -1 46 C-5.52502932 47.32675617 -9.32125901 46.57249199 -13.8125 45.5625 C-14.50537109 45.41490234 -15.19824219 45.26730469 -15.91210938 45.11523438 C-17.60996815 44.75224388 -19.30526763 44.37731777 -21 44 C-20.52046875 42.43185547 -20.52046875 42.43185547 -20.03125 40.83203125 C-18.38611894 34.71887379 -17.665346 29.08191398 -20.23828125 23.140625 C-22.5111844 19.23777394 -24.20679615 16.52880257 -28 14 C-28 13.34 -28 12.68 -28 12 C-27.01 11.98582031 -26.02 11.97164062 -25 11.95703125 C-17.372696 11.73008564 -10.83529505 11.45975626 -5 6 C-3.23475763 4.06187307 -1.62765819 2.05850889 0 0 Z " fill="#F9E06A" transform="translate(47,116)"/>
<path d="M0 0 C4.66127148 2.6888549 8.67750142 6.06738664 10.74609375 11.125 C11.7523651 16.64299616 11.49922125 21.54624337 8.74609375 26.5 C5.4589689 31.00012022 1.25813138 34.49902706 -4.3359375 35.49609375 C-10.06443758 35.68229739 -14.53327534 34.5998265 -18.87890625 30.875 C-19.66265625 29.9675 -20.44640625 29.06 -21.25390625 28.125 C-22.01703125 27.25875 -22.78015625 26.3925 -23.56640625 25.5 C-25.97696441 20.67888368 -26.03485255 16.41808048 -25.25390625 11.125 C-20.51511988 1.47191664 -10.4333306 -4.05037444 0 0 Z " fill="#F5F5F5" transform="translate(330.25390625,182.875)"/>
<path d="M0 0 C3.41762879 2.12170253 5.43349934 4.04543597 7.0625 7.8125 C7.5575 8.8025 7.5575 8.8025 8.0625 9.8125 C8.78328245 16.93761177 8.45136924 22.04427186 4.0625 27.8125 C3.0725 28.1425 2.0825 28.4725 1.0625 28.8125 C1.0625 29.4725 1.0625 30.1325 1.0625 30.8125 C-4.84990056 33.86406158 -12.64075615 33.67290159 -18.9375 31.8125 C-23.8223977 27.95002275 -26.30703998 23.61417394 -27.328125 17.45703125 C-27.74304328 11.3747064 -26.30868217 7.50253282 -22.6328125 2.6640625 C-16.5721542 -3.95518182 -7.61093069 -3.92942187 0 0 Z " fill="#F7F7F7" transform="translate(198.9375,184.1875)"/>
<path d="M0 0 C1.3955608 0.93721485 2.74890226 1.93667669 4.09375 2.9453125 C4.795 3.0484375 5.49625 3.1515625 6.21875 3.2578125 C8.95640686 4.26162001 10.00931539 6.19455399 11.34375 8.69140625 C12.77843513 13.00293396 12.38557454 17.46256328 12.09375 21.9453125 C11.10375 22.2753125 10.11375 22.6053125 9.09375 22.9453125 C7.88492904 24.94547716 7.88492904 24.94547716 7.09375 26.9453125 C5.77375 26.9453125 4.45375 26.9453125 3.09375 26.9453125 C2.43375 23.6453125 1.77375 20.3453125 1.09375 16.9453125 C0.43375 16.9453125 -0.22625 16.9453125 -0.90625 16.9453125 C-1.31875 15.8934375 -1.73125 14.8415625 -2.15625 13.7578125 C-3.26526856 11.12057697 -4.21425225 9.5757098 -6.09375 7.3203125 C-8.18139436 4.58477852 -8.28972912 3.30075482 -7.90625 -0.0546875 C-14.95737439 -2.26680496 -21.55282821 -2.25645822 -28.90625 -2.0546875 C-28.90625 -1.7246875 -28.90625 -1.3946875 -28.90625 -1.0546875 C-30.55625 -0.7246875 -32.20625 -0.3946875 -33.90625 -0.0546875 C-33.57625 0.9353125 -33.24625 1.9253125 -32.90625 2.9453125 C-33.23625 3.6053125 -33.56625 4.2653125 -33.90625 4.9453125 C-32.58625 4.9453125 -31.26625 4.9453125 -29.90625 4.9453125 C-27.35297896 11.78443135 -25.3417782 17.60717916 -25.90625 24.9453125 C-26.89625 25.2753125 -27.88625 25.6053125 -28.90625 25.9453125 C-27.38418991 28.57432538 -26.06259036 30.78897214 -23.90625 32.9453125 C-24.23625 33.9353125 -24.56625 34.9253125 -24.90625 35.9453125 C-25.23625 34.9553125 -25.56625 33.9653125 -25.90625 32.9453125 C-27.23663449 32.600398 -28.57082061 32.27014668 -29.90625 31.9453125 C-31.9127938 30.62184744 -33.91253175 29.28802071 -35.90625 27.9453125 C-37.55244113 27.22957723 -39.21353055 26.5427429 -40.90625 25.9453125 C-39.58625 25.6153125 -38.26625 25.2853125 -36.90625 24.9453125 C-39.75100516 15.65579136 -39.75100516 15.65579136 -45.90625 8.9453125 C-47.60134618 6.44727602 -47.94689275 5.29484017 -47.59375 2.2578125 C-46.90625 -0.0546875 -46.90625 -0.0546875 -45.90625 -1.0546875 C-43.90666636 -1.09549533 -41.90579746 -1.09723106 -39.90625 -1.0546875 C-39.90625 -1.7146875 -39.90625 -2.3746875 -39.90625 -3.0546875 C-28.41216913 -6.34719402 -10.51056656 -5.81527248 0 0 Z " fill="#F89C9F" transform="translate(393.90625,239.0546875)"/>
<path d="M0 0 C1.6396875 0.4640625 1.6396875 0.4640625 3.3125 0.9375 C8.48276323 2.2463099 13.69261392 2.62926347 19 3 C19.08687496 6.12482562 19.14034568 9.24934246 19.1875 12.375 C19.21263672 13.26445312 19.23777344 14.15390625 19.26367188 15.0703125 C19.27333984 15.92109375 19.28300781 16.771875 19.29296875 17.6484375 C19.3086792 18.43395996 19.32438965 19.21948242 19.34057617 20.02880859 C19.22818604 20.67930176 19.1157959 21.32979492 19 22 C13.72346191 25.51769206 8.13607598 25.10579441 2 25 C2 25.66 2 26.32 2 27 C0.02 27 -1.96 27 -4 27 C-3.566875 25.88625 -3.566875 25.88625 -3.125 24.75 C-2.13343178 21.44477259 -1.56597946 18.40165956 -1.0625 15 C-0.34855504 10.40790604 0.58344712 6.95435926 3 3 C2.34 3 1.68 3 1 3 C0.67 2.01 0.34 1.02 0 0 Z " fill="#CEDBDE" transform="translate(312,424)"/>
<path d="M0 0 C1.32 0 2.64 0 4 0 C4.50510495 8.25004758 3.64216625 19.03675063 -1 26 C-1.66 26 -2.32 26 -3 26 C-3.26425781 26.598125 -3.52851563 27.19625 -3.80078125 27.8125 C-5.7725035 31.40912691 -8.79496211 33.52337982 -12 36 C-12.969375 36.78375 -13.93875 37.5675 -14.9375 38.375 C-18.79288719 40.49324722 -22.95305111 40.39261577 -27.25 40.4375 C-27.96019287 40.44765137 -28.67038574 40.45780273 -29.40209961 40.46826172 C-34.50365223 40.38203145 -34.50365223 40.38203145 -36.984375 38.47265625 C-37.31953125 37.98667969 -37.6546875 37.50070312 -38 37 C-36.948125 36.855625 -35.89625 36.71125 -34.8125 36.5625 C-30.37173632 35.94645146 -30.37173632 35.94645146 -26 35 C-25.67 34.34 -25.34 33.68 -25 33 C-23.33333333 32.33333333 -21.66666667 31.66666667 -20 31 C-14.79533075 27.91968555 -11.59900781 24.66501302 -8.5 19.5 C-7 17 -7 17 -5 14.9375 C-1.91413931 10.40514211 -1.11861416 5.31341726 0 0 Z " fill="#D3DCDD" transform="translate(353,376)"/>
<path d="M0 0 C1.134375 0.020625 2.26875 0.04125 3.4375 0.0625 C3.7675 1.0525 4.0975 2.0425 4.4375 3.0625 C5.7575 3.0625 7.0775 3.0625 8.4375 3.0625 C7.47058886 5.66572231 6.48078821 7.99387235 4.99609375 10.34765625 C3.31263267 13.28000074 2.32073487 16.08932396 1.3125 19.3125 C-0.46641459 24.96641459 -0.46641459 24.96641459 -1.5625 26.0625 C-0.9025 26.7225 -0.2425 27.3825 0.4375 28.0625 C-0.635 28.495625 -1.7075 28.92875 -2.8125 29.375 C-5.72522646 30.61571513 -8.12286166 32.01320379 -10.5625 34.0625 C-11.5625 29.3125 -11.5625 29.3125 -11.5625 27.0625 C-11.8925 26.0725 -12.2225 25.0825 -12.5625 24.0625 C-11.46787924 16.82459945 -8.70961097 0.15280019 0 0 Z " fill="#F69999" transform="translate(155.5625,237.9375)"/>
<path d="M0 0 C2.31 0 4.62 0 7 0 C7 0.33 7 0.66 7 1 C5.35 1.33 3.7 1.66 2 2 C2.33 2.99 2.66 3.98 3 5 C2.67 5.66 2.34 6.32 2 7 C3.32 7 4.64 7 6 7 C8.55327104 13.83911885 10.5644718 19.66186666 10 27 C9.01 27.33 8.02 27.66 7 28 C8.52206009 30.62901288 9.84365964 32.84365964 12 35 C11.67 35.99 11.34 36.98 11 38 C10.67 37.01 10.34 36.02 10 35 C8.66961551 34.6550855 7.33542939 34.32483418 6 34 C3.9934562 32.67653494 1.99371825 31.34270821 0 30 C-1.64619113 29.28426473 -3.30728055 28.5974304 -5 28 C-3.68 27.67 -2.36 27.34 -1 27 C-0.31593994 21.6643315 -2.05390247 18.57682921 -4.7109375 14.1484375 C-7.06590179 10.22349702 -8.37852767 7.66850794 -8 3 C-7 2 -7 2 -3.4375 1.9375 C-2.303125 1.958125 -1.16875 1.97875 0 2 C0 1.34 0 0.68 0 0 Z " fill="#F59A9B" transform="translate(358,237)"/>
<path d="M0 0 C1.134375 0.020625 2.26875 0.04125 3.4375 0.0625 C3.05445571 9.63860733 2.10983002 18.92181554 0.53076172 28.37158203 C-0.39726524 33.92709407 -1.10211074 39.44575105 -1.5625 45.0625 C-3.8725 45.0625 -6.1825 45.0625 -8.5625 45.0625 C-8.13149454 32.93652924 -7.37610545 21.06826834 -5.5625 9.0625 C-5.36929753 7.43816812 -5.18064185 5.81327667 -5 4.1875 C-4.42461748 0.07762487 -4.42461748 0.07762487 0 0 Z " fill="#D26867" transform="translate(501.5625,106.9375)"/>
<path d="M0 0 C2.31 0 4.62 0 7 0 C6.35285795 8.92675356 5.58052441 17.83660107 4.69775391 26.74316406 C4.49612471 28.78932707 4.30083776 30.83604339 4.10546875 32.8828125 C3.91404297 34.82027344 3.91404297 34.82027344 3.71875 36.796875 C3.60466797 37.96573242 3.49058594 39.13458984 3.37304688 40.33886719 C3 43 3 43 2 44 C0.00041636 44.04080783 -2.00045254 44.04254356 -4 44 C-4.29935477 34.66387326 -3.1474929 25.61847887 -2 16.375 C-1.80674818 14.78261795 -1.61403554 13.19017036 -1.421875 11.59765625 C-0.95412824 7.7309874 -0.47909825 3.86527806 0 0 Z " fill="#E3716F" transform="translate(468,110)"/>
<path d="M0 0 C3.77802553 1.46695568 5.16900973 3.35148969 7.1875 6.8125 C7.95126953 8.09060547 7.95126953 8.09060547 8.73046875 9.39453125 C9.98408251 11.96733241 10.57999338 14.18140135 11 17 C11.66 17 12.32 17 13 17 C14.42258812 20.82320557 15.24042276 23.91281305 15 28 C14.34 28 13.68 28 13 28 C13 28.99 13 29.98 13 31 C14.65 31.33 16.3 31.66 18 32 C18 32.33 18 32.66 18 33 C14.37 33.66 10.74 34.32 7 35 C6.34 33.35 5.68 31.7 5 30 C4.46375 29.46375 3.9275 28.9275 3.375 28.375 C2.92125 27.92125 2.4675 27.4675 2 27 C2 26.01 2 25.02 2 24 C2.66 23.67 3.32 23.34 4 23 C4.49703564 16.53853664 3.11101075 11.70034512 0.875 5.63671875 C0 3 0 3 0 0 Z " fill="#F6ABAC" transform="translate(363,241)"/>
<path d="M0 0 C0.99 0 1.98 0 3 0 C6.52390238 3.95104206 9.2866543 7.09158378 9.1875 12.5 C9.18105469 13.2734375 9.17460937 14.046875 9.16796875 14.84375 C9 17 9 17 8 20 C8.99 20.33 9.98 20.66 11 21 C7.98968256 21.93423645 7.13349732 22.04449911 4 21 C1.60509014 20.93029948 -0.79167691 20.91551997 -3.1875 20.9375 C-4.45980469 20.94652344 -5.73210937 20.95554687 -7.04296875 20.96484375 C-8.01878906 20.97644531 -8.99460938 20.98804688 -10 21 C-9.51080078 20.05640625 -9.51080078 20.05640625 -9.01171875 19.09375 C-6.31620768 13.8140469 -3.96750019 8.59184265 -2 3 C-1.34 3 -0.68 3 0 3 C0 2.01 0 1.02 0 0 Z " fill="#EBACB0" transform="translate(169,243)"/>
<path d="M0 0 C0.99 0 1.98 0 3 0 C4.50300627 3.31114413 6.00189956 6.62413372 7.5 9.9375 C7.92925781 10.88302734 8.35851562 11.82855469 8.80078125 12.80273438 C9.40986328 14.15141602 9.40986328 14.15141602 10.03125 15.52734375 C10.40830078 16.35999756 10.78535156 17.19265137 11.17382812 18.05053711 C12 20 12 20 12 21 C10.83082031 21.06058594 9.66164063 21.12117188 8.45703125 21.18359375 C6.90884386 21.26804034 5.36066732 21.35268625 3.8125 21.4375 C3.04357422 21.47681641 2.27464844 21.51613281 1.48242188 21.55664062 C-2.43251075 21.77507034 -6.17120688 22.08692108 -10 23 C-8.03617993 21.49440461 -6.21736634 20.10868317 -4 19 C-4.2475 18.2575 -4.2475 18.2575 -4.5 17.5 C-5.47112963 12.64435187 -5.75749611 8.58385551 -3.625 4.125 C-2 2 -2 2 0 0 Z " fill="#F69C9D" transform="translate(340,243)"/>
<path d="M0 0 C0.66 0 1.32 0 2 0 C2 0.66 2 1.32 2 2 C2.66 2 3.32 2 4 2 C4.12375 2.928125 4.12375 2.928125 4.25 3.875 C4.77876656 6.12099931 4.77876656 6.12099931 6.6875 6.9375 C7.450625 7.288125 8.21375 7.63875 9 8 C12.3125 10.1875 12.3125 10.1875 15 13 C14.94087589 16.48832221 14.55735315 18.8852937 13 22 C12.34 22 11.68 22 11 22 C10.7525 22.825 10.505 23.65 10.25 24.5 C8.81295189 28.52373471 6.97645485 32.21979024 5 36 C4.67 34.68 4.34 33.36 4 32 C3.34 32 2.68 32 2 32 C2.433125 31.2265625 2.433125 31.2265625 2.875 30.4375 C5.8302788 24.10788909 5.8302788 24.10788909 4.6875 17.4375 C4.130625 16.303125 3.57375 15.16875 3 14 C2.60235737 12.01178687 2.24544834 10.01267638 2 8 C-2.571279 8.54855348 -6.67435795 9.41744803 -11 11 C-10 9 -10 9 -7.75 7.75 C-5.27030641 6.17201317 -4.08861366 5.05240595 -2.3125 2.8125 C-1.549375 1.884375 -0.78625 0.95625 0 0 Z " fill="#EFD969" transform="translate(47,116)"/>
<path d="M0 0 C1.703125 1.09765625 1.703125 1.09765625 3.953125 2.91015625 C-0.22275245 4.3021154 -2.18162276 2.73338844 -6.046875 0.91015625 C-6.046875 2.23015625 -6.046875 3.55015625 -6.046875 4.91015625 C-5.386875 4.91015625 -4.726875 4.91015625 -4.046875 4.91015625 C-3.551875 7.38515625 -3.551875 7.38515625 -3.046875 9.91015625 C-7.96995192 5.60246394 -7.96995192 5.60246394 -8.359375 2.09765625 C-8.25625 1.37578125 -8.153125 0.65390625 -8.046875 -0.08984375 C-14.35775796 -1.96246556 -19.98648897 -2.33880453 -26.546875 -2.21484375 C-27.4646875 -2.20582031 -28.3825 -2.19679687 -29.328125 -2.1875 C-31.56799056 -2.16416807 -33.80728683 -2.1314361 -36.046875 -2.08984375 C-36.046875 -1.42984375 -36.046875 -0.76984375 -36.046875 -0.08984375 C-38.356875 0.24015625 -40.666875 0.57015625 -43.046875 0.91015625 C-43.80265604 6.9564046 -40.45902948 11.83899635 -37.171875 16.66015625 C-36.800625 17.40265625 -36.429375 18.14515625 -36.046875 18.91015625 C-36.9765625 21.05078125 -36.9765625 21.05078125 -38.046875 22.91015625 C-38.37300781 22.06710937 -38.69914062 21.2240625 -39.03515625 20.35546875 C-39.47214844 19.25976562 -39.90914063 18.1640625 -40.359375 17.03515625 C-40.78863281 15.94460937 -41.21789062 14.8540625 -41.66015625 13.73046875 C-42.87619875 10.66144316 -42.87619875 10.66144316 -46.046875 8.91015625 C-47.78069993 6.3961101 -48.09126785 5.29193477 -47.734375 2.22265625 C-47.046875 -0.08984375 -47.046875 -0.08984375 -46.046875 -1.08984375 C-44.04729136 -1.13065158 -42.04642246 -1.13238731 -40.046875 -1.08984375 C-40.046875 -1.74984375 -40.046875 -2.40984375 -40.046875 -3.08984375 C-28.36741255 -6.43545326 -10.73555838 -5.71607021 0 0 Z " fill="#EBABAA" transform="translate(394.046875,239.08984375)"/>
<path d="M0 0 C0.99 0 1.98 0 3 0 C3.22564837 13.74545744 3.44454425 27.42118121 1 41 C0 42 0 42 -3.0625 42.0625 C-4.031875 42.041875 -5.00125 42.02125 -6 42 C-6.11269443 35.8894576 -5.89604368 30.04829486 -5 24 C-4.67 24 -4.34 24 -4 24 C-3.90311779 29.44693314 -3.87137825 34.63904667 -5 40 C-2.525 39.505 -2.525 39.505 0 39 C0 34.38 0 29.76 0 25 C-0.99 25.33 -1.98 25.66 -3 26 C-2.85691406 24.8759375 -2.71382813 23.751875 -2.56640625 22.59375 C-1.97975212 17.90051692 -1.45434313 13.20135822 -0.9375 8.5 C-0.84662109 7.67757812 -0.75574219 6.85515625 -0.66210938 6.0078125 C-0.44089767 4.00526445 -0.220376 2.00264019 0 0 Z " fill="#EC6968" transform="translate(470,112)"/>
<path d="M0 0 C0.928125 0.680625 0.928125 0.680625 1.875 1.375 C1.24740135 4.30379371 0.28877341 6.73595629 -1.125 9.375 C-1.785 9.375 -2.445 9.375 -3.125 9.375 C-4.57732253 12.95347037 -5.93726545 16.55560107 -7.25 20.1875 C-7.60320312 21.16332031 -7.95640625 22.13914062 -8.3203125 23.14453125 C-8.58585937 23.88058594 -8.85140625 24.61664063 -9.125 25.375 C-8.465 25.705 -7.805 26.035 -7.125 26.375 C-9.105 26.045 -11.085 25.715 -13.125 25.375 C-12.135 25.045 -11.145 24.715 -10.125 24.375 C-9.23537598 21.81555019 -9.23537598 21.81555019 -8.6875 18.75 C-7.21086871 12.2139636 -4.82533216 7.92549825 -1.125 2.375 C-2.445 2.375 -3.765 2.375 -5.125 2.375 C-5.455 1.715 -5.785 1.055 -6.125 0.375 C-11.11093296 -0.64124111 -15.99806419 -0.71725722 -21.0625 -0.625 C-26.50895767 -0.56978246 -31.74612515 -0.72852086 -37.125 -1.625 C-37.125 -1.955 -37.125 -2.285 -37.125 -2.625 C-26.06425168 -5.42944937 -10.19269356 -5.30020065 0 0 Z " fill="#EDABAD" transform="translate(165.125,238.625)"/>
<path d="M0 0 C4.55390645 1.51796882 6.56762034 4.97778182 9 9 C9.875 12.5 9.875 12.5 10 15 C10.66 15 11.32 15 12 15 C12.12117188 15.71027344 12.24234375 16.42054688 12.3671875 17.15234375 C12.53476562 18.07144531 12.70234375 18.99054688 12.875 19.9375 C13.11863281 21.31228516 13.11863281 21.31228516 13.3671875 22.71484375 C13.57601563 23.46894531 13.78484375 24.22304688 14 25 C14.66 25.33 15.32 25.66 16 26 C15.01 26 14.02 26 13 26 C13 26.99 13 27.98 13 29 C11.68 29.33 10.36 29.66 9 30 C9.33 29.34 9.66 28.68 10 28 C10.66 28 11.32 28 12 28 C10.07608351 22.68588506 10.07608351 22.68588506 6 19 C5.05078125 17.16015625 5.05078125 17.16015625 4.3125 15.0625 C4.06113281 14.37285156 3.80976563 13.68320313 3.55078125 12.97265625 C3 11 3 11 3 8 C2.34 8 1.68 8 1 8 C0.67 5.36 0.34 2.72 0 0 Z " fill="#FDEAE7" transform="translate(383,241)"/>
<path d="M0 0 C0.66 0 1.32 0 2 0 C2 1.98 2 3.96 2 6 C1.34 6 0.68 6 0 6 C-0.1546875 7.299375 -0.1546875 7.299375 -0.3125 8.625 C-1.04436287 12.21778135 -2.10560293 14.8669587 -4 18 C-4.99 18.33 -5.98 18.66 -7 19 C-7.36548445 20.32488113 -7.6937566 21.66018514 -8 23 C-9.5625 25.25 -9.5625 25.25 -11 27 C-11 26.34 -11 25.68 -11 25 C-11.99 24.67 -12.98 24.34 -14 24 C-13.34 24 -12.68 24 -12 24 C-11.7525 23.030625 -11.505 22.06125 -11.25 21.0625 C-9.75872521 15.80548814 -7.4391127 10.87822541 -5 6 C-4.34 6 -3.68 6 -3 6 C-2.87625 5.38125 -2.7525 4.7625 -2.625 4.125 C-2 2 -2 2 0 0 Z " fill="#FEE5E3" transform="translate(127,242)"/>
<path d="M0 0 C0.66 0 1.32 0 2 0 C3.25664978 2.90600261 4 4.79604584 4 8 C4.59296875 8.18304688 5.1859375 8.36609375 5.796875 8.5546875 C9.01102606 10.66326178 9.90937571 13.67084048 11.25 17.125 C11.518125 17.78371094 11.78625 18.44242187 12.0625 19.12109375 C12.7204713 20.74252303 13.36187627 22.37065741 14 24 C11 25 11 25 8.94628906 24.30053711 C6.67492133 22.78277796 5.99349648 21.65535787 4.859375 19.19140625 C4.51132812 18.44439453 4.16328125 17.69738281 3.8046875 16.92773438 C3.45664062 16.14720703 3.10859375 15.36667969 2.75 14.5625 C2.38648438 13.78583984 2.02296875 13.00917969 1.6484375 12.20898438 C-1 6.42921758 -1 6.42921758 -1 3 C-1.66 2.67 -2.32 2.34 -3 2 C-2.01 2 -1.02 2 0 2 C0 1.34 0 0.68 0 0 Z " fill="#FEF0ED" transform="translate(344,240)"/>
<path d="M0 0 C0.66 0 1.32 0 2 0 C3.53266582 3.06533164 3.10276471 6.26754272 3.0625 9.625 C3.05798828 10.33140625 3.05347656 11.0378125 3.04882812 11.765625 C3.03703875 13.51045275 3.01910324 15.255237 3 17 C1.37419034 16.88601335 -0.25067157 16.75844341 -1.875 16.625 C-2.77992188 16.55539062 -3.68484375 16.48578125 -4.6171875 16.4140625 C-7 16 -7 16 -9 14 C-8.525625 13.4225 -8.05125 12.845 -7.5625 12.25 C-6.0515133 10.07417916 -5.45963849 8.57397552 -5 6 C-4.34 6 -3.68 6 -3 6 C-2.814375 5.071875 -2.814375 5.071875 -2.625 4.125 C-2 2 -2 2 0 0 Z " fill="#F2999C" transform="translate(172,247)"/>
<path d="M0 0 C0.66 0 1.32 0 2 0 C1.35083537 6.00477279 -0.85795003 11.400781 -3 17 C-3.66 17 -4.32 17 -5 17 C-5.061875 17.556875 -5.12375 18.11375 -5.1875 18.6875 C-6.33373872 21.94987173 -8.49390197 23.68667874 -11 26 C-12.10719511 23.20852626 -12.01233302 22.03830002 -11.07421875 19.125 C-10.61660156 18.09375 -10.15898437 17.0625 -9.6875 16 C-9.23761719 14.96875 -8.78773438 13.9375 -8.32421875 12.875 C-7.25726063 10.55853636 -6.16215788 8.26975435 -5 6 C-4.34 6 -3.68 6 -3 6 C-2.87625 5.38125 -2.7525 4.7625 -2.625 4.125 C-2 2 -2 2 0 0 Z " fill="#FEE8E6" transform="translate(147,242)"/>
<path d="M0 0 C0.33 0.66 0.66 1.32 1 2 C2.65 2 4.3 2 6 2 C6.66 3.32 7.32 4.64 8 6 C7.01 5.67 6.02 5.34 5 5 C5 4.34 5 3.68 5 3 C4.01 3 3.02 3 2 3 C2 3.99 2 4.98 2 6 C1.34 6 0.68 6 0 6 C-0.0825 6.639375 -0.165 7.27875 -0.25 7.9375 C-1.60217078 13.45886401 -3.91547642 19.91547642 -8 24 C-8.99 24 -9.98 24 -11 24 C-7.97545334 11.75165856 -7.97545334 11.75165856 -5 8 C-4.34 8 -3.68 8 -3 8 C-2.87625 7.4225 -2.7525 6.845 -2.625 6.25 C-1.99351176 3.97664233 -1.11141809 2.0746471 0 0 Z " fill="#FEE7E2" transform="translate(167,240)"/>
<path d="M0 0 C5.49152767 2.17051742 7.42993547 6.96037625 10 12 C13.36290323 19.91129032 13.36290323 19.91129032 12 24 C9.24200902 22.62100451 8.56147404 20.62327638 7 18 C6.51789063 17.57460938 6.03578125 17.14921875 5.5390625 16.7109375 C3.42620349 14.36212469 2.77095445 11.99654724 1.8125 9 C1.46832031 7.948125 1.12414062 6.89625 0.76953125 5.8125 C0 3 0 3 0 0 Z " fill="#FDE7DE" transform="translate(363,241)"/>
<path d="M0 0 C0.33 0 0.66 0 1 0 C1.33 2.97 1.66 5.94 2 9 C2.33 9 2.66 9 3 9 C3.66 8.01 4.32 7.02 5 6 C7.47209619 12.39836661 7.47209619 12.39836661 6 16 C4.22265625 17.484375 4.22265625 17.484375 2.0625 18.75 C1.35222656 19.17796875 0.64195312 19.6059375 -0.08984375 20.046875 C-2 21 -2 21 -4 21 C-3.855625 20.030625 -3.71125 19.06125 -3.5625 18.0625 C-3.14020367 15.17094316 -2.83538556 12.284155 -2.5625 9.375 C-2.20025227 5.95701743 -1.51125529 3.12326094 0 0 Z " fill="#D1DADB" transform="translate(375,312)"/>
<path d="M0 0 C3 0.25 3 0.25 5 2.25 C5.25 5.25 5.25 5.25 5 8.25 C3 10.25 3 10.25 -0.5625 10.4375 C-4 10.25 -4 10.25 -5 9.25 C-5.1875 5.8125 -5.1875 5.8125 -5 2.25 C-3 0.25 -3 0.25 0 0 Z " fill="#B96566" transform="translate(494,165.75)"/>
<path d="M0 0 C2.47543247 3.30057663 3.76116089 5.51200786 5.1875 9.25 C5.53167969 10.14203125 5.87585938 11.0340625 6.23046875 11.953125 C6.48441406 12.62859375 6.73835938 13.3040625 7 14 C5.83082031 14.06058594 4.66164063 14.12117188 3.45703125 14.18359375 C1.90884386 14.26804034 0.36066732 14.35268625 -1.1875 14.4375 C-1.95642578 14.47681641 -2.72535156 14.51613281 -3.51757812 14.55664062 C-7.43251075 14.77507034 -11.17120688 15.08692108 -15 16 C-14.38125 15.54625 -13.7625 15.0925 -13.125 14.625 C-10.94080167 13.02891081 -10.94080167 13.02891081 -9 11 C-6.8359375 10.5859375 -6.8359375 10.5859375 -4.375 10.375 C-2.209375 10.189375 -2.209375 10.189375 0 10 C0 6.7 0 3.4 0 0 Z " fill="#C19193" transform="translate(345,250)"/>
<path d="M0 0 C1.670625 0.061875 1.670625 0.061875 3.375 0.125 C4 3.5 4 3.5 4.375 7.125 C2.375 9.125 2.375 9.125 -0.625 9.3125 C-3.625 9.125 -3.625 9.125 -5.625 8.125 C-5.75 5.25 -5.75 5.25 -5.625 2.125 C-3.625 0.125 -3.625 0.125 0 0 Z " fill="#CE6165" transform="translate(464.625,167.875)"/>
<path d="M0 0 C0.02735618 1.70824133 0.04655506 3.41661405 0.0625 5.125 C0.07410156 6.07632813 0.08570313 7.02765625 0.09765625 8.0078125 C0 11 0 11 -0.49291992 13.80151367 C-0.99491629 16.9679337 -1.15677767 19.96483696 -1.2109375 23.16796875 C-1.23929687 24.30814453 -1.26765625 25.44832031 -1.296875 26.62304688 C-1.34921161 29.01090455 -1.39340516 31.39895381 -1.4296875 33.78710938 C-1.460625 34.92341797 -1.4915625 36.05972656 -1.5234375 37.23046875 C-1.54325684 38.26582764 -1.56307617 39.30118652 -1.58349609 40.36791992 C-2.04831679 43.30533604 -2.68795776 44.20818646 -5 46 C-4.544585 36.74788469 -3.92183602 27.53086017 -3 18.3125 C-2.9170166 17.4762207 -2.8340332 16.63994141 -2.74853516 15.77832031 C-2.3069328 11.48722946 -1.76858675 7.2478143 -1 3 C-3.31 3 -5.62 3 -8 3 C-7 1 -7 1 -5.125 0.375 C-3 0 -3 0 0 0 Z " fill="#2E0909" transform="translate(476,107)"/>
<path d="M0 0 C0.66 0 1.32 0 2 0 C6.28670939 6.02818509 6.474377 10.71304215 6 18 C5.01 18.33 4.02 18.66 3 19 C1.79117904 21.00016466 1.79117904 21.00016466 1 23 C-0.32 23 -1.64 23 -3 23 C-3.66 20.03 -4.32 17.06 -5 14 C-4.01 14.495 -4.01 14.495 -3 15 C-2.375 17.0625 -2.375 17.0625 -2 19 C-1.34 19 -0.68 19 0 19 C0.33 18.01 0.66 17.02 1 16 C1.66 16 2.32 16 3 16 C3.33 13.03 3.66 10.06 4 7 C3.34 7 2.68 7 2 7 C0 4 0 4 0 0 Z " fill="#E8AEB3" transform="translate(400,243)"/>
<path d="M0 0 C0.33 0.66 0.66 1.32 1 2 C4.12813867 2.92220804 4.12813867 2.92220804 7.8125 3.625 C9.05644531 3.88539063 10.30039062 4.14578125 11.58203125 4.4140625 C15.07911012 5.11264254 15.07911012 5.11264254 19 5 C19.66 4.34 20.32 3.68 21 3 C21 4.32 21 5.64 21 7 C19.68 7.33 18.36 7.66 17 8 C17 8.99 17 9.98 17 11 C15.56068883 10.54738642 14.12361001 10.08767021 12.6875 9.625 C11.48673828 9.24214844 11.48673828 9.24214844 10.26171875 8.8515625 C8 8 8 8 5 6 C3.0103005 5.60986284 1.00980131 5.26797351 -1 5 C-0.67 3.35 -0.34 1.7 0 0 Z " fill="#38301A" transform="translate(26,157)"/>
<path d="M0 0 C0.33 0 0.66 0 1 0 C1.08870637 6.7515403 1.13507703 13.5066744 0.75 20.25 C0.68039062 21.55710938 0.68039062 21.55710938 0.609375 22.890625 C0 25 0 25 -1.8125 26.3515625 C-5.19758672 27.35499892 -7.74947146 26.12518296 -11 25 C-10.88610125 23.20759337 -10.75852313 21.41605165 -10.625 19.625 C-10.55539062 18.62726563 -10.48578125 17.62953125 -10.4140625 16.6015625 C-10 14 -10 14 -8 12 C-8.33 15.96 -8.66 19.92 -9 24 C-6.69 24 -4.38 24 -2 24 C-2.02320313 23.44054687 -2.04640625 22.88109375 -2.0703125 22.3046875 C-2.24080009 14.73016734 -1.20494252 7.46634028 0 0 Z " fill="#411616" transform="translate(502,128)"/>
<path d="M0 0 C3.31812126 0.70322323 4.66204593 1.5557753 7 4 C7.66 4 8.32 4 9 4 C10.23649903 11.4189942 9.50382815 17.65485589 8 25 C7.01 25.33 6.02 25.66 5 26 C5.15597656 25.44441406 5.31195312 24.88882813 5.47265625 24.31640625 C7.446698 15.64524506 5.86110562 9.54789472 1.3125 2.01953125 C0.879375 1.35308594 0.44625 0.68664062 0 0 Z " fill="#C5B665" transform="translate(22,131)"/>
<path d="M0 0 C2.97 0 5.94 0 9 0 C9.33 3.3 9.66 6.6 10 10 C7.00261059 11.99825961 6.36652492 12.27550398 3 12.25 C2.319375 12.25515625 1.63875 12.2603125 0.9375 12.265625 C-1 12 -1 12 -4 10 C-4.78561862 7.21462489 -5 4.8996083 -5 2 C-4.01 2.33 -3.02 2.66 -2 3 C-2.33 4.98 -2.66 6.96 -3 9 C1.00254456 9.09181134 1.00254456 9.09181134 5 9 C6.41577477 7.81575674 6.41577477 7.81575674 6.0625 4.4375 C6.041875 3.303125 6.02125 2.16875 6 1 C4.02 1 2.04 1 0 1 C0 0.67 0 0.34 0 0 Z " fill="#3B1519" transform="translate(462,167)"/>
<path d="M0 0 C0.66 0 1.32 0 2 0 C1.85775413 2.52108103 1.71129879 5.04180403 1.5625 7.5625 C1.50352539 8.61920898 1.50352539 8.61920898 1.44335938 9.69726562 C0.68761489 22.31238511 0.68761489 22.31238511 -1 24 C-2.99958364 24.04080783 -5.00045254 24.04254356 -7 24 C-7.11269443 17.8894576 -6.89604368 12.04829486 -6 6 C-5.67 6 -5.34 6 -5 6 C-4.90311779 11.44693314 -4.87137825 16.63904667 -6 22 C-4.35 21.67 -2.7 21.34 -1 21 C-0.67 14.07 -0.34 7.14 0 0 Z " fill="#B56364" transform="translate(471,130)"/>
<path d="M0 0 C2.31 0 4.62 0 7 0 C6.67 5.28 6.34 10.56 6 16 C5.34 16 4.68 16 4 16 C3.67 12.37 3.34 8.74 3 5 C1.68 5 0.36 5 -1 5 C-0.67 3.35 -0.34 1.7 0 0 Z " fill="#C86B71" transform="translate(498,107)"/>
<path d="M0 0 C0.99 0 1.98 0 3 0 C3.33 1.32 3.66 2.64 4 4 C3.34 4 2.68 4 2 4 C1.938125 4.804375 1.87625 5.60875 1.8125 6.4375 C0.74466875 11.11952934 -1.31503894 15.02692678 -4 19 C-4.66 19.33 -5.32 19.66 -6 20 C-6.33 19.01 -6.66 18.02 -7 17 C-6.01 17 -5.02 17 -4 17 C-4.0825 16.05125 -4.165 15.1025 -4.25 14.125 C-4.29215976 8.99204922 -2.07385016 4.60135505 0 0 Z " fill="#BFC8CA" transform="translate(420,272)"/>
<path d="M0 0 C2.31 0 4.62 0 7 0 C6.03644647 13.6332574 6.03644647 13.6332574 5 20 C4.67 20 4.34 20 4 20 C3.88730557 13.8894576 4.10395632 8.04829486 5 2 C4.01 2 3.02 2 2 2 C1.95101563 2.71027344 1.90203125 3.42054687 1.8515625 4.15234375 C1.77679688 5.07144531 1.70203125 5.99054688 1.625 6.9375 C1.52058594 8.31228516 1.52058594 8.31228516 1.4140625 9.71484375 C1.27742188 10.46894531 1.14078125 11.22304687 1 12 C0.01 12.495 0.01 12.495 -1 13 C-0.67 8.71 -0.34 4.42 0 0 Z " fill="#D57071" transform="translate(468,110)"/>
<path d="M0 0 C0.33 0 0.66 0 1 0 C1.05883728 3.47909371 1.09387399 6.95805674 1.125 10.4375 C1.14175781 11.41138672 1.15851563 12.38527344 1.17578125 13.38867188 C1.21725154 19.58848075 0.57599699 25.00004295 -1 31 C-1.33 31 -1.66 31 -2 31 C-2.24965165 20.445283 -1.67901457 10.43387625 0 0 Z " fill="#280607" transform="translate(505,108)"/>
<path d="M0 0 C0.66 0.33 1.32 0.66 2 1 C2.31241455 3.71446979 2.51336592 6.33909361 2.625 9.0625 C2.66367187 9.82111328 2.70234375 10.57972656 2.7421875 11.36132812 C2.83673562 13.24047195 2.91946756 15.12020336 3 17 C2.34 16.01 1.68 15.02 1 14 C0.87625 15.299375 0.7525 16.59875 0.625 17.9375 C0.4140625 20.15234375 0.4140625 20.15234375 0 22 C-0.66 22.33 -1.32 22.66 -2 23 C-1.86183041 19.35383329 -1.71318466 15.70816926 -1.5625 12.0625 C-1.50352539 10.50112305 -1.50352539 10.50112305 -1.44335938 8.90820312 C-1.40146484 7.91884766 -1.35957031 6.92949219 -1.31640625 5.91015625 C-1.27974854 4.99371338 -1.24309082 4.07727051 -1.20532227 3.13305664 C-1 1 -1 1 0 0 Z " fill="#E46767" transform="translate(500,111)"/>
<path d="M0 0 C0.66 0 1.32 0 2 0 C2 0.66 2 1.32 2 2 C2.66 2 3.32 2 4 2 C4.12375 2.928125 4.12375 2.928125 4.25 3.875 C4.79326091 6.16669871 4.79326091 6.16669871 6.9375 7.0625 C7.618125 7.371875 8.29875 7.68125 9 8 C9.99 9.485 9.99 9.485 11 11 C10.01 11.495 10.01 11.495 9 12 C4.125 8.25 4.125 8.25 3 6 C0.69 6 -1.62 6 -4 6 C-2.7260411 3.96166576 -1.38938077 1.96147874 0 0 Z " fill="#E0D081" transform="translate(47,116)"/>
<path d="M0 0 C0.9599526 2.57361524 1.10863264 3.70485652 0.14453125 6.32421875 C-0.29503906 7.10410156 -0.73460937 7.88398438 -1.1875 8.6875 C-1.61417969 9.47511719 -2.04085937 10.26273437 -2.48046875 11.07421875 C-4.23985619 13.30398227 -5.23257781 13.6503685 -8 14 C-6.42383191 8.48341169 -4.07768576 4.07768576 0 0 Z " fill="#FDEFEC" transform="translate(164,250)"/>
<path d="M0 0 C2 0 2 0 4.25 2.1875 C5.61125 3.5796875 5.61125 3.5796875 7 5 C8.96647738 6.71199207 10.97740933 8.35370527 13 10 C10.07175348 10.97608217 8.04386724 11.08226668 5 11 C4.731875 10.195625 4.46375 9.39125 4.1875 8.5625 C3.795625 7.716875 3.40375 6.87125 3 6 C2.01 5.67 1.02 5.34 0 5 C0 3.35 0 1.7 0 0 Z " fill="#C8D0CE" transform="translate(373,103)"/>
<path d="M0 0 C2.62421512 0.99539194 4.00330698 2.00374791 5.875 4.125 C7.52183564 8.33357997 6.36848531 10.75049299 5 15 C3.25050228 12.37575342 2.34610019 10.44272784 1.375 7.5 C0.98441406 6.33984375 0.98441406 6.33984375 0.5859375 5.15625 C0 3 0 3 0 0 Z " fill="#FDDAD9" transform="translate(363,241)"/>
<path d="M0 0 C0.66 0 1.32 0 2 0 C3.32229189 2.64458379 3.09677194 4.67761301 3.0625 7.625 C3.05347656 8.62789063 3.04445313 9.63078125 3.03515625 10.6640625 C3.02355469 11.43492187 3.01195312 12.20578125 3 13 C2.34 13 1.68 13 1 13 C1 15.31 1 17.62 1 20 C0.34 19.67 -0.32 19.34 -1 19 C-0.67 12.73 -0.34 6.46 0 0 Z " fill="#0A0F11" transform="translate(331,427)"/>
<path d="M0 0 C0.99 0.33 1.98 0.66 3 1 C3.125 4.375 3.125 4.375 3 8 C2.34 8.66 1.68 9.32 1 10 C0.5978125 11.485 0.5978125 11.485 0.1875 13 C-1 16 -1 16 -3.625 17.375 C-4.800625 17.684375 -4.800625 17.684375 -6 18 C-4.125 12.25 -4.125 12.25 -3 10 C-2.34 10 -1.68 10 -1 10 C-0.67 6.7 -0.34 3.4 0 0 Z " fill="#2C2711" transform="translate(61,128)"/>
<path d="M0 0 C0.66 0.99 1.32 1.98 2 3 C0.72777885 6.81666346 -0.53979577 7.11261588 -4 9 C-4.825 9.53625 -5.65 10.0725 -6.5 10.625 C-9.04805016 12.02642759 -11.13766876 12.59109554 -14 13 C-11.25056672 10.10450308 -8.18312885 7.90279037 -4.9375 5.59765625 C-2.90003105 3.91756593 -1.49676741 2.16563535 0 0 Z " fill="#373A3D" transform="translate(350,402)"/>
<path d="M0 0 C0.99 0 1.98 0 3 0 C3 0.99 3 1.98 3 3 C1.68 3.33 0.36 3.66 -1 4 C-2.20568053 8.67201205 -2.09382426 13.21496292 -2 18 C-2.66 18 -3.32 18 -4 18 C-5.63186199 13.10441403 -5.83931781 8.75493725 -3.625 4.125 C-2 2 -2 2 0 0 Z " fill="#EDAAAD" transform="translate(340,243)"/>
<path d="M0 0 C0.66 0.33 1.32 0.66 2 1 C-7.53538695 13.83219626 -7.53538695 13.83219626 -14 17 C-14.99 16.67 -15.98 16.34 -17 16 C-16.401875 15.7525 -15.80375 15.505 -15.1875 15.25 C-12.70245261 13.82997292 -11.68637514 12.27294041 -10 10 C-9.01 9.67 -8.02 9.34 -7 9 C-6.67 8.01 -6.34 7.02 -6 6 C-5.34 6 -4.68 6 -4 6 C-4 5.34 -4 4.68 -4 4 C-2.70766393 2.62689293 -1.37562854 1.28965176 0 0 Z " fill="#E5EDEF" transform="translate(396,296)"/>
<path d="M0 0 C2.64 0.33 5.28 0.66 8 1 C8.33 2.32 8.66 3.64 9 5 C8.34 4.67 7.68 4.34 7 4 C3.95826106 3.83329727 3.95826106 3.83329727 1 4 C-0.96822886 5.96822886 -0.66248381 9.34808709 -1 12 C-1.66 11.67 -2.32 11.34 -3 11 C-3 8.69 -3 6.38 -3 4 C-2.34 3.67 -1.68 3.34 -1 3 C-0.67 2.01 -0.34 1.02 0 0 Z " fill="#341313" transform="translate(490,163)"/>
<path d="M0 0 C0.2494783 7.29031024 -0.27669093 13.90673679 -2 21 C-2.33 21 -2.66 21 -3 21 C-2.03644647 8.33029613 -2.03644647 8.33029613 -1 3 C-3.31 3 -5.62 3 -8 3 C-7 1 -7 1 -5.125 0.375 C-3 0 -3 0 0 0 Z " fill="#5E2728" transform="translate(476,107)"/>
<path d="M0 0 C0.66 0.99 1.32 1.98 2 3 C1.67 3.99 1.34 4.98 1 6 C0.34 6 -0.32 6 -1 6 C-1.66 4.68 -2.32 3.36 -3 2 C-4.051875 2.309375 -5.10375 2.61875 -6.1875 2.9375 C-9.12752396 3.75685094 -12.00161623 4.45483931 -15 5 C-13.57601609 2.15203218 -11.8143692 1.43845537 -9 0 C-5.35611141 -0.87453326 -3.5791347 -1.1930449 0 0 Z " fill="#DFCF69" transform="translate(51,122)"/>
<path d="M0 0 C2.59895181 1.28008074 4.464469 1.23202055 7.34375 1.15625 C8.68179687 1.12917969 8.68179687 1.12917969 10.046875 1.1015625 C10.72234375 1.07835937 11.3978125 1.05515625 12.09375 1.03125 C9.55174705 3.57325295 7.85150617 3.31841913 4.37695312 3.35351562 C3.64412109 3.35029297 2.91128906 3.34707031 2.15625 3.34375 C1.42728516 3.35986328 0.69832031 3.37597656 -0.05273438 3.39257812 C-5.42325102 3.39750069 -5.42325102 3.39750069 -7.91015625 1.51171875 C-8.23886719 1.02316406 -8.56757813 0.53460938 -8.90625 0.03125 C-2.40039941 -1.21987511 -2.40039941 -1.21987511 0 0 Z " fill="#C4C6C6" transform="translate(323.90625,412.96875)"/>
<path d="M0 0 C0.66 0 1.32 0 2 0 C2 0.66 2 1.32 2 2 C3.56116819 2.33951619 5.12401338 2.67132544 6.6875 3 C7.99267578 3.2784375 7.99267578 3.2784375 9.32421875 3.5625 C11.93712964 3.98972047 14.35813038 4.07616201 17 4 C17 4.99 17 5.98 17 7 C10.60794144 6.27637073 4.31972924 5.19656638 -2 4 C-1.34 2.68 -0.68 1.36 0 0 Z " fill="#F1E087" transform="translate(28,156)"/>
<path d="M0 0 C0.33 0.66 0.66 1.32 1 2 C3.64 2 6.28 2 9 2 C8.67 3.98 8.34 5.96 8 8 C5.0280615 6.87548273 2.66559313 5.77706209 0 4 C0 2.68 0 1.36 0 0 Z " fill="#EBB1AF" transform="translate(107,258)"/>
<path d="M0 0 C0.66 0 1.32 0 2 0 C6.28670939 6.02818509 6.474377 10.71304215 6 18 C5.34 18 4.68 18 4 18 C4 14.37 4 10.74 4 7 C3.34 7 2.68 7 2 7 C0 4 0 4 0 0 Z " fill="#F3C1C0" transform="translate(400,243)"/>
<path d="M0 0 C0.99 0.33 1.98 0.66 3 1 C3.125 3.375 3.125 3.375 3 6 C1 8 1 8 -2.0625 8.1875 C-5 8 -5 8 -6 7 C-6.04063832 5.33382885 -6.042721 3.66611905 -6 2 C-5.34 1.67 -4.68 1.34 -4 1 C-3.67 2.65 -3.34 4.3 -3 6 C-2.34 6 -1.68 6 -1 6 C-0.67 4.02 -0.34 2.04 0 0 Z " fill="#D2747A" transform="translate(466,169)"/>
<path d="M0 0 C0.99 0 1.98 0 3 0 C2.79503906 0.71285156 2.59007812 1.42570312 2.37890625 2.16015625 C0.89124227 7.44883729 -0.23757996 12.55414255 -1 18 C-2.0625 20.9375 -2.0625 20.9375 -3 23 C-3.33 23 -3.66 23 -4 23 C-4.042721 21.33388095 -4.04063832 19.66617115 -4 18 C-3.67 17.67 -3.34 17.34 -3 17 C-2.43655256 14.14772981 -1.91865055 11.30368392 -1.4375 8.4375 C-1.29892578 7.63119141 -1.16035156 6.82488281 -1.01757812 5.99414062 C-0.67482237 3.99670189 -0.33695612 1.99842528 0 0 Z " fill="#E5EEEF" transform="translate(312,427)"/>
<path d="M0 0 C2.31 0.33 4.62 0.66 7 1 C6.34 2.98 5.68 4.96 5 7 C4.01 7 3.02 7 2 7 C0.5393715 4.35261084 0 3.10551666 0 0 Z " fill="#D8E6E5" transform="translate(379,113)"/>
<path d="M0 0 C2.64 0.66 5.28 1.32 8 2 C8 2.66 8 3.32 8 4 C10.64 4 13.28 4 16 4 C16 4.33 16 4.66 16 5 C15.24074219 5.06058594 14.48148437 5.12117188 13.69921875 5.18359375 C12.70535156 5.26738281 11.71148437 5.35117187 10.6875 5.4375 C9.70136719 5.51871094 8.71523438 5.59992188 7.69921875 5.68359375 C4.90624401 5.91812559 4.90624401 5.91812559 2 7 C2.33 5.68 2.66 4.36 3 3 C2.34 3 1.68 3 1 3 C0.67 2.01 0.34 1.02 0 0 Z " fill="#D5E1E2" transform="translate(312,424)"/>
<path d="M0 0 C0.33 0.66 0.66 1.32 1 2 C0.67 2.99 0.34 3.98 0 5 C0.66 5.33 1.32 5.66 2 6 C0.73046875 7.49739583 -0.5390625 8.99479167 -1.80859375 10.4921875 C-3.0878152 12.00594079 -3.0878152 12.00594079 -4 14 C-3.34 14.33 -2.68 14.66 -2 15 C-3.98 15.99 -3.98 15.99 -6 17 C-5.34 14.03 -4.68 11.06 -4 8 C-3.34 8 -2.68 8 -2 8 C-1.855625 6.865625 -1.71125 5.73125 -1.5625 4.5625 C-1 1 -1 1 0 0 Z " fill="#CECECE" transform="translate(286,266)"/>
<path d="M0 0 C0.99 0 1.98 0 3 0 C3 0.66 3 1.32 3 2 C3.99 2.33 4.98 2.66 6 3 C8.04108797 6.00791911 8.19878036 8.42195344 8 12 C5.45868642 9.69716746 3.92889705 7.32686207 2.3125 4.3125 C1.87550781 3.50425781 1.43851562 2.69601563 0.98828125 1.86328125 C0.66214844 1.24839844 0.33601563 0.63351563 0 0 Z " fill="#EAA8AB" transform="translate(365,241)"/>
<path d="M0 0 C0.33 0 0.66 0 1 0 C1.19551338 1.60320974 1.38111983 3.20762986 1.5625 4.8125 C1.66691406 5.70582031 1.77132813 6.59914062 1.87890625 7.51953125 C2 10 2 10 1 13 C1.99 13 2.98 13 4 13 C4 13.66 4 14.32 4 15 C2.02 15 0.04 15 -2 15 C-1.34 10.05 -0.68 5.1 0 0 Z " fill="#DD7878" transform="translate(495,136)"/>
<path d="M0 0 C0.66 0.66 1.32 1.32 2 2 C1.66666667 3.66666667 1.33333333 5.33333333 1 7 C1.3086247 9.33672984 1.64456573 11.66993089 2 14 C2.08444142 16.67397837 2.04695276 19.32369261 2 22 C1.67 22 1.34 22 1 22 C0.66131223 19.79248152 0.32928311 17.58394089 0 15.375 C-0.185625 14.14523437 -0.37125 12.91546875 -0.5625 11.6484375 C-1.58031088 3.16062176 -1.58031088 3.16062176 0 0 Z " fill="#494949" transform="translate(206,312)"/>
<path d="M0 0 C4.41889613 1.35021826 6.34345343 3.26115668 9 7 C7.68 7 6.36 7 5 7 C4.67 6.34 4.34 5.68 4 5 C2.35 5.33 0.7 5.66 -1 6 C-0.67 4.02 -0.34 2.04 0 0 Z " fill="#C0C9CB" transform="translate(385,115)"/>
<path d="M0 0 C0.66 0 1.32 0 2 0 C2 0.66 2 1.32 2 2 C2.99 2.33 3.98 2.66 5 3 C4.01 3.33 3.02 3.66 2 4 C2 4.66 2 5.32 2 6 C1.01 6.33 0.02 6.66 -1 7 C-1.66 6.67 -2.32 6.34 -3 6 C-1.125 1.125 -1.125 1.125 0 0 Z " fill="#CED6DA" transform="translate(390,314)"/>
<path d="M0 0 C0.33 0.66 0.66 1.32 1 2 C0.01 3.485 0.01 3.485 -1 5 C-1.33218192 8.00259517 -1.33218192 8.00259517 0.5 9.6875 C1.2425 10.3371875 1.2425 10.3371875 2 11 C-0.31 10.34 -2.62 9.68 -5 9 C-4.37315423 6.07471973 -3.51695295 3.58774327 -2 1 C-1.34 0.67 -0.68 0.34 0 0 Z " fill="#ECACAE" transform="translate(122,260)"/>
<path d="M0 0 C0.33 0.99 0.66 1.98 1 3 C-1.15343189 6.23014784 -2.27059611 7.75686537 -6 9 C-5.74438677 6.6568787 -5.40729228 4.32156597 -5 2 C-4.34 1.67 -3.68 1.34 -3 1 C-3 1.66 -3 2.32 -3 3 C-2.01 2.01 -1.02 1.02 0 0 Z " fill="#F9D2C9" transform="translate(141,259)"/>
<path d="M0 0 C0.33 1.32 0.66 2.64 1 4 C-0.32 4.33 -1.64 4.66 -3 5 C-3 5.99 -3 6.98 -3 8 C-3.99 7.67 -4.98 7.34 -6 7 C-6 5.68 -6 4.36 -6 3 C-6.99 2.67 -7.98 2.34 -9 2 C-6.36 2 -3.72 2 -1 2 C-0.67 1.34 -0.34 0.68 0 0 Z " fill="#423A1D" transform="translate(46,160)"/>
<path d="M0 0 C0.66 0.33 1.32 0.66 2 1 C1.67 3.31 1.34 5.62 1 8 C0.01 8.33 -0.98 8.66 -2 9 C-2.33 9.66 -2.66 10.32 -3 11 C-2.44894091 7.0507432 -1.61064629 3.65079826 0 0 Z " fill="#EDADAA" transform="translate(148,245)"/>
<path d="M0 0 C0.66 0 1.32 0 2 0 C2.66 1.98 3.32 3.96 4 6 C3.34 6 2.68 6 2 6 C1.67 7.32 1.34 8.64 1 10 C-0.4606285 7.35261084 -1 6.10551666 -1 3 C-1.66 2.67 -2.32 2.34 -3 2 C-2.01 2 -1.02 2 0 2 C0 1.34 0 0.68 0 0 Z " fill="#F8D4D1" transform="translate(344,240)"/>
<path d="M0 0 C0.33 0 0.66 0 1 0 C1.33 4.29 1.66 8.58 2 13 C1.01 13.33 0.02 13.66 -1 14 C-1.38218767 12.34385343 -1.71395102 10.67542976 -2 9 C-1.67 8.67 -1.34 8.34 -1 8 C-0.76924918 6.65252916 -0.58846937 5.29622435 -0.4375 3.9375 C-0.293125 2.638125 -0.14875 1.33875 0 0 Z " fill="#C7D1D7" transform="translate(428,196)"/>
<path d="M0 0 C0 3.43830115 -0.37400757 6.61964088 -1 10 C-1.99 10.495 -1.99 10.495 -3 11 C-3.33 10.34 -3.66 9.68 -4 9 C-4.99 9.495 -4.99 9.495 -6 10 C-4.34832443 6.4213696 -2.21713508 3.25179812 0 0 Z " fill="#262C2E" transform="translate(416,290)"/>
<path d="M0 0 C0.93065133 2.60582371 1.14917407 3.64198224 0.0625 6.25 C-0.4634375 7.11625 -0.4634375 7.11625 -1 8 C-1.99 7.67 -2.98 7.34 -4 7 C-4.33 8.32 -4.66 9.64 -5 11 C-5.33 10.34 -5.66 9.68 -6 9 C-4.21293716 5.54912004 -2.74146784 2.74146784 0 0 Z " fill="#B3B3B1" transform="translate(151,280)"/>
<path d="M0 0 C0.99 0.33 1.98 0.66 3 1 C3.33 3.31 3.66 5.62 4 8 C2.68 7.67 1.36 7.34 0 7 C0 4.69 0 2.38 0 0 Z " fill="#FEF5F4" transform="translate(368,249)"/>
<path d="M0 0 C0.66 0 1.32 0 2 0 C0.46990911 3.44270451 -1.4931222 6.18925822 -4 9 C-4.99 9.33 -5.98 9.66 -7 10 C-5.63055898 7.05043472 -4.12169591 4.47531189 -2 2 C-1.34 2 -0.68 2 0 2 C0 1.34 0 0.68 0 0 Z " fill="#404040" transform="translate(172,178)"/>
<path d="M0 0 C1.65 0.33 3.3 0.66 5 1 C4.67 2.32 4.34 3.64 4 5 C2.35 5 0.7 5 -1 5 C-0.67 3.35 -0.34 1.7 0 0 Z " fill="#EC6764" transform="translate(492,168)"/>
<path d="M0 0 C0 3 0 3 -1.53125 4.82421875 C-2.1809375 5.43910156 -2.830625 6.05398437 -3.5 6.6875 C-4.1496875 7.31011719 -4.799375 7.93273437 -5.46875 8.57421875 C-5.9740625 9.04472656 -6.479375 9.51523438 -7 10 C-7.66 9.67 -8.32 9.34 -9 9 C-7.87895467 7.68412059 -6.75303035 6.37239647 -5.625 5.0625 C-4.99851562 4.33160156 -4.37203125 3.60070312 -3.7265625 2.84765625 C-2 1 -2 1 0 0 Z " fill="#BCBCBC" transform="translate(128,112)"/>
<path d="M0 0 C0.66 0.33 1.32 0.66 2 1 C1.50769231 7.4 1.50769231 7.4 -1.0625 10.4375 C-2.0215625 11.2109375 -2.0215625 11.2109375 -3 12 C-3.33 11.01 -3.66 10.02 -4 9 C-3.01 9 -2.02 9 -1 9 C-1.020625 7.88625 -1.04125 6.7725 -1.0625 5.625 C-1 2 -1 2 0 0 Z " fill="#C5D0D2" transform="translate(417,280)"/>
<path d="M0 0 C2 3 2 3 2.5 6.625 C2.665 7.73875 2.83 8.8525 3 10 C3.66 10.33 4.32 10.66 5 11 C4.01 11 3.02 11 2 11 C2 11.99 2 12.98 2 14 C0.68 14.33 -0.64 14.66 -2 15 C-1.67 14.34 -1.34 13.68 -1 13 C-0.34 13 0.32 13 1 13 C0.9278125 12.39671875 0.855625 11.7934375 0.78125 11.171875 C0.6884375 10.37265625 0.595625 9.5734375 0.5 8.75 C0.4071875 7.96109375 0.314375 7.1721875 0.21875 6.359375 C0 4 0 4 0 0 Z " fill="#FAD5D4" transform="translate(394,256)"/>
<path d="M0 0 C0.99 0 1.98 0 3 0 C3.28571429 8.57142857 3.28571429 8.57142857 1 12 C-0.3271261 8.0186217 -0.06915913 4.14954773 0 0 Z " fill="#B5B9B8" transform="translate(354,376)"/>
<path d="M0 0 C0.66 0.33 1.32 0.66 2 1 C1.01 3.64 0.02 6.28 -1 9 C-1.99 9 -2.98 9 -4 9 C-2.25 2.25 -2.25 2.25 0 0 Z " fill="#DDE8E9" transform="translate(379,313)"/>
<path d="M0 0 C1.52299523 2.93720508 2.80100302 5.9168649 4 9 C1.03 8.505 1.03 8.505 -2 8 C-2.33 6.68 -2.66 5.36 -3 4 C-2.67 4.66 -2.34 5.32 -2 6 C-1.34 6 -0.68 6 0 6 C0 4.02 0 2.04 0 0 Z " fill="#F2D3D2" transform="translate(354,256)"/>
<path d="M0 0 C0.53625 0.2475 1.0725 0.495 1.625 0.75 C0.965 0.75 0.305 0.75 -0.375 0.75 C-0.375 1.41 -0.375 2.07 -0.375 2.75 C-1.695 3.08 -3.015 3.41 -4.375 3.75 C-4.375 4.41 -4.375 5.07 -4.375 5.75 C-5.695 5.75 -7.015 5.75 -8.375 5.75 C-8.375 5.09 -8.375 4.43 -8.375 3.75 C-3.23290173 -0.34030544 -3.23290173 -0.34030544 0 0 Z " fill="#F2BEC0" transform="translate(120.375,238.25)"/>
<path d="M0 0 C2.31 0 4.62 0 7 0 C6.33333333 1.33333333 5.66666667 2.66666667 5 4 C1.9375 4.625 1.9375 4.625 -1 5 C-0.67 3.35 -0.34 1.7 0 0 Z " fill="#AE585F" transform="translate(498,107)"/>
<path d="M0 0 C2.02408755 0.09002398 4.04544287 0.24641038 6.0625 0.4375 C7.71958984 0.59025391 7.71958984 0.59025391 9.41015625 0.74609375 C10.26480469 0.82988281 11.11945313 0.91367187 12 1 C8.31282562 3.45811625 6.35654296 3.31118164 2 3 C1.01 2.34 0.02 1.68 -1 1 C-0.67 0.67 -0.34 0.34 0 0 Z " fill="#DFE5E5" transform="translate(324,412)"/>
<path d="M0 0 C-0.33 1.32 -0.66 2.64 -1 4 C-1.99 4 -2.98 4 -4 4 C-4.33 4.66 -4.66 5.32 -5 6 C-8.0625 6.625 -8.0625 6.625 -11 7 C-8.21677024 3.90752249 -4.31039412 0 0 0 Z " fill="#303435" transform="translate(384,326)"/>
<path d="M0 0 C0.33 0 0.66 0 1 0 C1.02712066 1.43739513 1.04645067 2.87493863 1.0625 4.3125 C1.07410156 5.11300781 1.08570313 5.91351563 1.09765625 6.73828125 C1 9 1 9 0 12 C0.99 12.33 1.98 12.66 3 13 C1.68 13.33 0.36 13.66 -1 14 C-2.15837573 10.52487282 -1.77265943 8.86329714 -1.0625 5.3125 C-0.86785156 4.31863281 -0.67320312 3.32476562 -0.47265625 2.30078125 C-0.31667969 1.54152344 -0.16070312 0.78226563 0 0 Z " fill="#E7D0D2" transform="translate(177,251)"/>
<path d="M0 0 C0.66 0 1.32 0 2 0 C2 0.66 2 1.32 2 2 C3.32 2.66 4.64 3.32 6 4 C5.360625 4.103125 4.72125 4.20625 4.0625 4.3125 C3.381875 4.539375 2.70125 4.76625 2 5 C1.67 5.99 1.34 6.98 1 8 C-0.35439668 5.29120665 -0.06501451 2.99066732 0 0 Z " fill="#FDE7E5" transform="translate(346,246)"/>
<path d="M0 0 C0.66 0.33 1.32 0.66 2 1 C0.73046875 2.49739583 -0.5390625 3.99479167 -1.80859375 5.4921875 C-3.0878152 7.00594079 -3.0878152 7.00594079 -4 9 C-6.0625 9.625 -6.0625 9.625 -8 10 C-6.34908222 5.70761377 -3.26245434 3.1206085 0 0 Z " fill="#3E3E3E" transform="translate(308,176)"/>
<path d="M0 0 C2 3 2 3 1.75 6.625 C1.5025 7.73875 1.255 8.8525 1 10 C0.01 10.495 0.01 10.495 -1 11 C-1 9.68 -1 8.36 -1 7 C-1.66 7 -2.32 7 -3 7 C-2.690625 6.401875 -2.38125 5.80375 -2.0625 5.1875 C-0.89790296 2.91043228 -0.89790296 2.91043228 0 0 Z " fill="#E2CB60" transform="translate(52,141)"/>
<path d="M0 0 C1.98 1.65 3.96 3.3 6 5 C5.67 5.99 5.34 6.98 5 8 C4.67 7.01 4.34 6.02 4 5 C2.66923011 4.65657551 1.33568021 4.32380126 0 4 C-0.66 3.01 -1.32 2.02 -2 1 C-1.34 0.67 -0.68 0.34 0 0 Z " fill="#C28887" transform="translate(364,267)"/>
<path d="M0 0 C0.66 0 1.32 0 2 0 C1.67 2.64 1.34 5.28 1 8 C0.01 8 -0.98 8 -2 8 C-2 6.35 -2 4.7 -2 3 C-1.34 3 -0.68 3 0 3 C0 2.01 0 1.02 0 0 Z " fill="#CBD7DD" transform="translate(426,256)"/>
<path d="M0 0 C2.15377564 2.62198774 3.40072174 4.64404172 4 8 C3.34 8 2.68 8 2 8 C1.67 8.99 1.34 9.98 1 11 C-0.17571451 7.32589215 -0.07366746 3.83070817 0 0 Z " fill="#F4ACB1" transform="translate(345,250)"/>
<path d="M0 0 C0.66 0.33 1.32 0.66 2 1 C-0.97 3.64 -3.94 6.28 -7 9 C-7 6 -7 6 -5.46875 4.39453125 C-4.49421875 3.61142578 -4.49421875 3.61142578 -3.5 2.8125 C-2.8503125 2.28269531 -2.200625 1.75289063 -1.53125 1.20703125 C-1.0259375 0.80871094 -0.520625 0.41039062 0 0 Z " fill="#B1B1B1" transform="translate(328,279)"/>
<path d="M0 0 C1 4 1 4 0.00390625 5.703125 C-1.33072917 7.13541667 -2.66536458 8.56770833 -4 10 C-4.66 9.01 -5.32 8.02 -6 7 C-4.02 4.69 -2.04 2.38 0 0 Z " fill="#D0D0D0" transform="translate(345,214)"/>
<path d="M0 0 C0.66 0.33 1.32 0.66 2 1 C1.01 2.98 0.02 4.96 -1 7 C-2.32 7 -3.64 7 -5 7 C-3.70700306 4.11562221 -2.34058637 2.12780579 0 0 Z " fill="#D4D4D4" transform="translate(312,185)"/>
<path d="M0 0 C0.66 0.66 1.32 1.32 2 2 C1.67 2.99 1.34 3.98 1 5 C0.34 5 -0.32 5 -1 5 C-2.62514468 6.45833358 -2.62514468 6.45833358 -4 8 C-4.66 7.67 -5.32 7.34 -6 7 C-4.02 4.69 -2.04 2.38 0 0 Z " fill="#CECECE" transform="translate(118,122)"/>
<path d="M0 0 C2.97 0.33 5.94 0.66 9 1 C9 1.33 9 1.66 9 2 C6.69 2.33 4.38 2.66 2 3 C1.67 5.64 1.34 8.28 1 11 C0.67 11 0.34 11 0 11 C0 7.37 0 3.74 0 0 Z " fill="#310A09" transform="translate(496,105)"/>
<path d="M0 0 C1.0625 1.875 1.0625 1.875 2 4 C0.60804085 6.7839183 -1.15575779 6.97898997 -4 8 C-2.87548273 5.0280615 -1.77706209 2.66559313 0 0 Z " fill="#B4B4B4" transform="translate(214,408)"/>
<path d="M0 0 C0.66 0.33 1.32 0.66 2 1 C0.3125 3.5 0.3125 3.5 -2 6 C-4.75 6.3125 -4.75 6.3125 -7 6 C-6.67 5.01 -6.34 4.02 -6 3 C-3.5 1.875 -3.5 1.875 -1 1 C-0.67 0.67 -0.34 0.34 0 0 Z " fill="#DFE8E8" transform="translate(334,406)"/>
<path d="M0 0 C0.66 0.99 1.32 1.98 2 3 C2.66 2.67 3.32 2.34 4 2 C2.79618552 4.49361571 1.54571278 6.68143083 0 9 C0 8.34 0 7.68 0 7 C-0.99 6.67 -1.98 6.34 -3 6 C-2.34 6 -1.68 6 -1 6 C-0.67 4.02 -0.34 2.04 0 0 Z " fill="#FAD4CF" transform="translate(116,260)"/>
<path d="M0 0 C0.66 0 1.32 0 2 0 C2.33 2.64 2.66 5.28 3 8 C2.34 8 1.68 8 1 8 C0.34 5.69 -0.32 3.38 -1 1 C-0.67 0.67 -0.34 0.34 0 0 Z " fill="#FFF1F1" transform="translate(392,256)"/>
<path d="M0 0 C0 0.99 0 1.98 0 3 C-0.639375 3.103125 -1.27875 3.20625 -1.9375 3.3125 C-2.618125 3.539375 -3.29875 3.76625 -4 4 C-4.33 4.99 -4.66 5.98 -5 7 C-5.66 7 -6.32 7 -7 7 C-6.22006468 2.47637516 -4.81844319 0 0 0 Z " fill="#ECB3B7" transform="translate(343,243)"/>
<path d="M0 0 C0.33 0.66 0.66 1.32 1 2 C2.65 2 4.3 2 6 2 C6.66 3.32 7.32 4.64 8 6 C7.01 5.67 6.02 5.34 5 5 C5 4.34 5 3.68 5 3 C4.01 3 3.02 3 2 3 C1.67 3.99 1.34 4.98 1 6 C1 5.34 1 4.68 1 4 C0.34 3.67 -0.32 3.34 -1 3 C-0.67 2.01 -0.34 1.02 0 0 Z " fill="#F9D1D4" transform="translate(167,240)"/>
<path d="M0 0 C4.47959418 1.14185734 8.14522751 2.43015167 12 5 C9 6 9 6 6.73828125 5.00390625 C5.93777344 4.52824219 5.13726562 4.05257812 4.3125 3.5625 C3.50425781 3.08941406 2.69601562 2.61632812 1.86328125 2.12890625 C1.24839844 1.75636719 0.63351562 1.38382813 0 1 C0 0.67 0 0.34 0 0 Z " fill="#EAB2B2" transform="translate(386,237)"/>
<path d="M0 0 C1.98 0 3.96 0 6 0 C5.67 1.32 5.34 2.64 5 4 C5 3.34 5 2.68 5 2 C4.401875 2.515625 3.80375 3.03125 3.1875 3.5625 C2.465625 4.036875 1.74375 4.51125 1 5 C0.01 4.67 -0.98 4.34 -2 4 C-1.34 2.68 -0.68 1.36 0 0 Z " fill="#F8ABAB" transform="translate(144,240)"/>
<path d="M0 0 C0.33 1.32 0.66 2.64 1 4 C-0.98 4.99 -2.96 5.98 -5 7 C-4.1875 4.0625 -4.1875 4.0625 -3 1 C-2.01 0.67 -1.02 0.34 0 0 Z " fill="#231C0C" transform="translate(60,139)"/>
<path d="M0 0 C1.60080151 4.00200378 0.29279692 7.04556236 -1 11 C-0.34 11.33 0.32 11.66 1 12 C0.01 12 -0.98 12 -2 12 C-2.33 9.36 -2.66 6.72 -3 4 C-2.34 3.67 -1.68 3.34 -1 3 C-0.67 2.01 -0.34 1.02 0 0 Z " fill="#4D4E51" transform="translate(372,322)"/>
<path d="M0 0 C0.66 0.33 1.32 0.66 2 1 C0.35 2.98 -1.3 4.96 -3 7 C-3.99 6.01 -4.98 5.02 -6 4 C-4.68 4 -3.36 4 -2 4 C-2 3.01 -2 2.02 -2 1 C-1.34 0.67 -0.68 0.34 0 0 Z " fill="#CCD2D6" transform="translate(407,300)"/>
<path d="M0 0 C1.32 0.33 2.64 0.66 4 1 C3.34 2.32 2.68 3.64 2 5 C0.35 4.67 -1.3 4.34 -3 4 C-2.01 2.68 -1.02 1.36 0 0 Z " fill="#3D1C1F" transform="translate(150,267)"/>
<path d="M0 0 C1.2065625 0.0309375 1.2065625 0.0309375 2.4375 0.0625 C2.1075 1.7125 1.7775 3.3625 1.4375 5.0625 C1.1075 4.4025 0.7775 3.7425 0.4375 3.0625 C-0.5525 3.3925 -1.5425 3.7225 -2.5625 4.0625 C-2.8925 3.0725 -3.2225 2.0825 -3.5625 1.0625 C-2.5625 0.0625 -2.5625 0.0625 0 0 Z " fill="#F9A9A6" transform="translate(128.5625,238.9375)"/>
<path d="M0 0 C0.66 1.32 1.32 2.64 2 4 C0.35 5.65 -1.3 7.3 -3 9 C-3.66 8.67 -4.32 8.34 -5 8 C-3.35 5.36 -1.7 2.72 0 0 Z " fill="#C2C2C2" transform="translate(213,211)"/>
<path d="M0 0 C-0.33 1.65 -0.66 3.3 -1 5 C-2.65 3.35 -4.3 1.7 -6 0 C-3 -1 -3 -1 0 0 Z " fill="#CFCFCF" transform="translate(344,177)"/>
<path d="M0 0 C0.99 0 1.98 0 3 0 C2.67 1.65 2.34 3.3 2 5 C1.34 4.67 0.68 4.34 0 4 C-0.33 4.66 -0.66 5.32 -1 6 C-1.66 6 -2.32 6 -3 6 C-2.67 4.68 -2.34 3.36 -2 2 C-1.34 2 -0.68 2 0 2 C0 1.34 0 0.68 0 0 Z " fill="#242009" transform="translate(50,154)"/>
<path d="M0 0 C0.33 0 0.66 0 1 0 C1.33 2.97 1.66 5.94 2 9 C1.34 8.67 0.68 8.34 0 8 C-0.66 8.66 -1.32 9.32 -2 10 C-2.22036864 6.14354879 -1.60355101 3.50776784 0 0 Z " fill="#9CA3A4" transform="translate(375,312)"/>
<path d="M0 0 C0.33 0 0.66 0 1 0 C1.25 6.625 1.25 6.625 -1 10 C-1.66 10 -2.32 10 -3 10 C-3 9.01 -3 8.02 -3 7 C-2.34 7 -1.68 7 -1 7 C-0.67 4.69 -0.34 2.38 0 0 Z " fill="#E5A4A4" transform="translate(404,252)"/>
<path d="M0 0 C0.66 0.99 1.32 1.98 2 3 C1.67 3.99 1.34 4.98 1 6 C-0.65 6 -2.3 6 -4 6 C-2.68 4.02 -1.36 2.04 0 0 Z " fill="#2D3134" transform="translate(350,402)"/>
<path d="M0 0 C0.66 0.33 1.32 0.66 2 1 C-1.32307692 5.8 -1.32307692 5.8 -4.75 6.8125 C-5.4925 6.874375 -6.235 6.93625 -7 7 C-4.66666667 4.66666667 -2.33333333 2.33333333 0 0 Z " fill="#EDF2F5" transform="translate(386,306)"/>
<path d="M0 0 C0.99 0.33 1.98 0.66 3 1 C3.33 1.99 3.66 2.98 4 4 C3.34 4 2.68 4 2 4 C1.67 5.32 1.34 6.64 1 8 C0.67 5.36 0.34 2.72 0 0 Z " fill="#FACECB" transform="translate(383,241)"/>
</svg>
